<?xml version="1.0" encoding="utf-8" ?>
<svg baseProfile="full" height="200mm" version="1.1" viewBox="0,0,200,200" width="200mm" xmlns="http://www.w3.org/2000/svg" xmlns:ev="http://www.w3.org/2001/xml-events" xmlns:xlink="http://www.w3.org/1999/xlink"><defs /><rect fill="#1a1a1a" height="200" width="200" x="0" y="0" /><text alignment-baseline="middle" fill="#e1ed5e" style="dominant-baseline: central; font-size:9.0px; font-family:Arial;" text-anchor="middle" x="100.0" y="100.0">2026</text><line stroke="#e1ed5e" stroke-width="0.3" x1="100.0" x2="100.0" y1="15.0" y2="10.0" /><path d="M 100.0 14.0 a86.0,86.0 0 0,1 42.46469731375804,11.215312516191453" fill="none" id="id109" stroke="none" /><text fill="#e1ed5e" style="font-size:6.75px; font-family:Arial;" text-anchor="middle"><textPath startOffset="22.20632615414155" xlink:href="#id109">January</textPath></text><path d="M 103.95276090670814 79.375362276772 l 3.4334225434161576 -17.914844277210715 a39.2408891186353,39.2408891186353 0 0,0 0.6622994869533486,0.13285104649275684 l -3.7412884398366315 17.853089274640748" fill="#ff7f0b" stroke="none" /><path d="M 106.0581310904928 79.89281104454417 l 14.172124665076748 -47.03787096785892 a70.12647374594906,70.12647374594906 0 0,0 1.1527944998723527,0.35817886262642656 l -14.979704537659819 46.786951970349975" fill="#39ff86" stroke="none" /><line stroke="#e1ed5e" stroke-width="0.3" x1="143.23703022742887" x2="145.7803849466894" y1="26.81831364943548" y2="22.513508569990506" /><path d="M 143.74570117128098 25.957352633546492 a86.0,86.0 0 0,1 28.547481713284135,27.462654790039103" fill="none" id="id110" stroke="none" /><text fill="#e1ed5e" style="font-size:6.75px; font-family:Arial;" text-anchor="middle"><textPath startOffset="19.985693538727396" xlink:href="#id110">February</textPath></text><path d="M 111.60114157652 82.49532879139004 l 13.67921397224122 -20.640222464049423 a45.76165742158246,45.76165742158246 0 0,0 0.6528560828420067,0.4408113414216803 l -14.032474749489769 20.40169921032907" fill="#ffe315" stroke="none" /><path d="M 113.34407831869373 83.78471172551755 l 15.675039027490646 -19.047795619458377 a45.66830692354083,45.66830692354083 0 0,0 0.602696526842719,0.5047410086065549 l -16.000593091292483 18.775153453458" fill="#ffe215" stroke="none" /><path d="M 114.42810811169701 84.74124197986012 l 17.00772850414826 -17.986891400310554 a45.75461757162455,45.75461757162455 0 0,0 0.5676116456911372,0.5460419534367564 l -17.314823393451814 17.691466360111495" fill="#ffe315" stroke="none" /><path d="M 115.68641384162765 86.03803664274999 l 18.490861092953594 -16.458110032689913 a45.75442040943462,45.75442040943462 0 0,0 0.5185678254631049,0.5928126680170245 l -18.771420781994546 16.13738180846994" fill="#ffe315" stroke="none" /><line stroke="#e1ed5e" stroke-width="0.3" x1="172.23445277983987" x2="176.4835382374775" y1="55.19839476539836" y2="52.563006222186495" /><path d="M 173.08426987136738 54.67131705675599 a86.0,86.0 0 0,1 12.851231095245387,41.99856678651699" fill="none" id="id111" stroke="none" /><text fill="#e1ed5e" style="font-size:6.75px; font-family:Arial;" text-anchor="middle"><textPath startOffset="22.20632615414155" xlink:href="#id111">March</textPath></text><path d="M 119.34039704204932 91.81776055985345 l 51.14761334235063 -21.638750137820452 a76.53659926702056,76.53659926702056 0 0,0 0.5028757551585998,1.21775352886365 l -51.51251078439543 20.755122038503497" fill="#42ffd7" stroke="none" /><path d="M 120.6074358757038 95.95851677861258 l 24.329287029746652 -4.771404162657952 a45.79275105871126,45.79275105871126 0 0,0 0.1450415088974383,0.7748175402123595 l -24.40781426255395 4.35190854498303" fill="#ffe315" stroke="none" /><path d="M 120.94382443527127 98.46500227214037 l 24.66340255389793 -1.8076100188160529 a45.729554777952295,45.729554777952295 0 0,0 0.05078029481205021,0.7855486848519331 l -24.690863439714395 1.3828022697110847" fill="#ffe315" stroke="none" /><line stroke="#e1ed5e" stroke-width="0.3" x1="184.98032266829074" x2="189.97916517819016" y1="98.17113171792111" y2="98.06355123074" /><path d="M 185.9800911702706 98.14961562048488 a86.0,86.0 0 0,1 -9.607161424134198,41.387399972396054" fill="none" id="id112" stroke="none" /><text fill="#e1ed5e" style="font-size:6.75px; font-family:Arial;" text-anchor="middle"><textPath startOffset="21.466115282336823" xlink:href="#id112">April</textPath></text><path d="M 120.99513854157772 99.54816195383933 l 16.907289203958044 -0.3638631154855755 a37.91120411422815,37.91120411422815 0 0,0 0.008425300940949319,0.652548842883928 l -16.911047512016708 0.07277801454118481" fill="#ff6a09" stroke="none" /><path d="M 120.70491114924044 103.5080841355445 l 48.573053397553124 8.229852174234665 a70.2653223187599,70.2653223187599 0 0,0 -0.2123135562528058,1.1907671755682547 l -48.42419339896113 -9.064738100536138" fill="#39ff88" stroke="none" /><path d="M 119.26925614724726 108.34839909993367 l 45.408548063242286 19.67323901263422 a70.4870949890981,70.4870949890981 0 0,0 -0.4919291515259975,1.1091703711878764 l -45.06317782698502 -20.451957720314784" fill="#39ff8b" stroke="none" /><line stroke="#e1ed5e" stroke-width="0.3" x1="174.80103733775053" x2="179.2010983576182" y1="140.37084112569926" y2="142.7455964860345" /><path d="M 175.68104954172406 140.8457921977663 a86.0,86.0 0 0,1 -30.038265399797805,32.042727171017184" fill="none" id="id113" stroke="none" /><text fill="#e1ed5e" style="font-size:6.75px; font-family:Arial;" text-anchor="middle"><textPath startOffset="22.206326154141568" xlink:href="#id113">May</textPath></text><path d="M 118.12598468904814 110.60418214915192 l 42.793679869197604 25.035438567905892 a70.57894937405146,70.57894937405146 0 0,0 -0.6225033903429031,1.043351488542819 l -42.35639560315647 -25.768352150334813" fill="#39ff8c" stroke="none" /><path d="M 115.80600337817218 113.82643327865902 l 18.237495432576218 15.953401232128789 a45.230502481924034,45.230502481924034 0 0,0 -0.517654809404253,0.5815906659866351 l -17.96018177352363 -16.26496606785629" fill="#ffdb14" stroke="none" /><path d="M 113.20401910651253 116.32954008644616 l 31.183339090161148 38.56474165891475 a70.59475714257312,70.59475714257312 0 0,0 -0.9514912886973134,0.7559222252575758 l -30.514890308746484 -39.09579779817745" fill="#39ff8d" stroke="none" /><line stroke="#e1ed5e" stroke-width="0.3" x1="143.8653032363475" x2="146.44561519142675" y1="172.8068346515853" y2="177.08958963109032" /><path d="M 144.38136562736335 173.6633856474863 a86.0,86.0 0 0,1 -40.68145358897372,12.25698825130547" fill="none" id="id114" stroke="none" /><text fill="#e1ed5e" style="font-size:6.75px; font-family:Arial;" text-anchor="middle"><textPath startOffset="21.466115282336833" xlink:href="#id114">June</textPath></text><path d="M 109.2508944713604 118.85261126421891 l 4.65563654199583 9.487829115926836 a31.568531257662812,31.568531257662812 0 0,0 -0.48989449651004724,0.2351791291643482 l -4.49162937748555 -9.566562521590743" fill="#ff0000" stroke="none" /><path d="M 108.92500713936063 119.00905698771935 l 26.775021418081884 57.02717096315804 a84.0,84.0 0 0,0 -1.3141280169303222,0.6032517186637025 l -25.789425405384144 -57.479609752155824" fill="#4dd2ff" stroke="none" /><path d="M 108.2653958097858 119.30500536409082 l 11.118884884709095 25.969734212593032 a49.24989727684222,49.24989727684222 0 0,0 -0.782202207554531,0.32696058619627133 l -10.670211217657103 -26.157279841809277" fill="#e9ff1a" stroke="none" /><path d="M 103.7750983002368 120.6578951692458 l 4.402292362762983 24.089993664171438 a45.48893572181244,45.48893572181244 0 0,0 -0.7714729163793004,0.13413045530767648 l -3.9869704749116326 -24.16220269800012" fill="#ffdf14" stroke="none" /><path d="M 102.70371172650421 120.8252237178851 l 1.5901649077582327 12.248177062579222 a33.350970236793444,33.350970236793444 0 0,0 -0.5699404110768943,0.06901184657792461 l -1.3790970736299581 -12.273734437882498" fill="#ff1f03" stroke="none" /><line stroke="#e1ed5e" stroke-width="0.3" x1="102.19456741930631" x2="102.32365962044197" y1="184.97166512339345" y2="189.96999836594603" /><path d="M 102.22038585953345 185.97133177190398 a86.0,86.0 0 0,1 -42.740103519485714,-10.115201625700543" fill="none" id="id115" stroke="none" /><text fill="#e1ed5e" style="font-size:6.75px; font-family:Arial;" text-anchor="middle"><textPath startOffset="22.20632615414155" xlink:href="#id115">July</textPath></text><line stroke="#e1ed5e" stroke-width="0.3" x1="58.666819895761336" x2="56.23545636021788" y1="174.27360380694188" y2="178.64263932499728" /><path d="M 58.180547188652646 175.14741091055294 a86.0,86.0 0 0,1 -31.652253787137756,-30.449443065178592" fill="none" id="id116" stroke="none" /><text fill="#e1ed5e" style="font-size:6.75px; font-family:Arial;" text-anchor="middle"><textPath startOffset="22.20632615414155" xlink:href="#id116">August</textPath></text><line stroke="#e1ed5e" stroke-width="0.3" x1="26.63291911575756" x2="22.317208475507996" y1="142.92168965132927" y2="145.44649492493687" /><path d="M 25.769776987707644 143.4266507060508 a86.0,86.0 0 0,1 -11.730757126820373,-40.83630448921669" fill="none" id="id117" stroke="none" /><text fill="#e1ed5e" style="font-size:6.75px; font-family:Arial;" text-anchor="middle"><textPath startOffset="21.46611528233685" xlink:href="#id117">September</textPath></text><line stroke="#e1ed5e" stroke-width="0.3" x1="15.007084014347285" x2="10.007500721073583" y1="101.09737516637583" y2="101.16192664675087" /><path d="M 14.007167355692545 101.11028546245083 a86.0,86.0 0 0,1 10.666146001902534,-42.60595125391555" fill="none" id="id118" stroke="none" /><text fill="#e1ed5e" style="font-size:6.75px; font-family:Arial;" text-anchor="middle"><textPath startOffset="22.20632615414155" xlink:href="#id118">October</textPath></text><line stroke="#e1ed5e" stroke-width="0.3" x1="26.266209847984243" x2="21.928928074336255" y1="57.711370442889674" y2="55.22380399835377" /><path d="M 25.398753493254645 57.213857153982495 a86.0,86.0 0 0,1 29.58750427330803,-30.492523968695096" fill="none" id="id119" stroke="none" /><text fill="#e1ed5e" style="font-size:6.75px; font-family:Arial;" text-anchor="middle"><textPath startOffset="21.46611528233685" xlink:href="#id119">November</textPath></text><line stroke="#e1ed5e" stroke-width="0.3" x1="56.762969772571076" x2="54.21961505331055" y1="26.818313649435495" y2="22.513508569990535" /><path d="M 56.25429882871897 25.957352633546506 a86.0,86.0 0 0,1 42.265352541879196,-11.944610805530505" fill="none" id="id120" stroke="none" /><text fill="#e1ed5e" style="font-size:6.75px; font-family:Arial;" text-anchor="middle"><textPath startOffset="22.20632615414155" xlink:href="#id120">December</textPath></text></svg>