<?xml version="1.0" encoding="utf-8" ?>
<svg baseProfile="full" height="200mm" version="1.1" viewBox="0,0,200,200" width="200mm" xmlns="http://www.w3.org/2000/svg" xmlns:ev="http://www.w3.org/2001/xml-events" xmlns:xlink="http://www.w3.org/1999/xlink"><defs /><rect fill="#1a1a1a" height="200" width="200" x="0" y="0" /><text alignment-baseline="middle" fill="#e1ed5e" style="dominant-baseline: central; font-size:9.0px; font-family:Arial;" text-anchor="middle" x="100.0" y="100.0">2026</text><line stroke="#e1ed5e" stroke-width="0.3" x1="100.0" x2="100.0" y1="15.0" y2="10.0" /><path d="M 100.0 14.0 a86.0,86.0 0 0,1 42.46469731375804,11.215312516191453" fill="none" id="id109" stroke="none" /><text fill="#e1ed5e" style="font-size:6.75px; font-family:Arial;" text-anchor="middle"><textPath startOffset="22.20632615414155" xlink:href="#id109">January</textPath></text><path d="M 103.95276090670814 79.375362276772 l 3.032016424040138 -15.820395362284597 a37.10832185594282,37.10832185594282 0 0,0 0.6263064644786362,0.12563118478910482 l -3.3038892979859 15.765860221418283" fill="#ff920d" stroke="none" /><path d="M 106.0581310904928 79.89281104454417 l 12.515242212309527 -41.53860922242521 a64.38303059683732,64.38303059683732 0 0,0 1.0583792338686484,0.32884357988911056 l -13.228406818888894 41.317025507653575" fill="#32ff4b" stroke="none" /><line stroke="#e1ed5e" stroke-width="0.3" x1="143.23703022742887" x2="145.7803849466894" y1="26.81831364943548" y2="22.513508569990506" /><path d="M 143.74570117128098 25.957352633546492 a86.0,86.0 0 0,1 28.547481713284135,27.462654790039103" fill="none" id="id110" stroke="none" /><text fill="#e1ed5e" style="font-size:6.75px; font-family:Arial;" text-anchor="middle"><textPath startOffset="19.985693538727396" xlink:href="#id110">February</textPath></text><path d="M 111.60114157652 82.49532879139004 l 12.079958381856395 -18.22714586261592 a42.86673822965966,42.86673822965966 0 0,0 0.6115558828433172,0.41292526202244495 l -12.391918959106254 18.016508688294806" fill="#ffe315" stroke="none" /><path d="M 113.34407831869373 83.78471172551755 l 13.842448803733252 -16.820891815574424 a42.7843014658546,42.7843014658546 0 0,0 0.5646355565585994,0.47286604056851284 l -14.12994189725097 16.58012461761209" fill="#ffe215" stroke="none" /><path d="M 114.42810811169701 84.74124197986012 l 15.019331733310258 -15.884019357811283 a42.86052141817628,42.86052141817628 0 0,0 0.5317087627116077,0.511503408456266 l -15.290523739634283 15.623132862592715" fill="#ffe315" stroke="none" /><path d="M 115.68641384162765 86.03803664274999 l 16.329069265298585 -14.533969908092132 a42.8603473064873,42.8603473064873 0 0,0 0.48576720899158266,0.5553158932301944 l -16.576828337868015 14.25073845865899" fill="#ffe315" stroke="none" /><line stroke="#e1ed5e" stroke-width="0.3" x1="172.23445277983987" x2="176.4835382374775" y1="55.19839476539836" y2="52.563006222186495" /><path d="M 173.08426987136738 54.67131705675599 a86.0,86.0 0 0,1 12.851231095245387,41.99856678651699" fill="none" id="id111" stroke="none" /><text fill="#e1ed5e" style="font-size:6.75px; font-family:Arial;" text-anchor="middle"><textPath startOffset="22.20632615414155" xlink:href="#id111">March</textPath></text><path d="M 119.34039704204932 91.81776055985345 l 45.167876002282256 -19.10893430212445 a70.04373958743821,70.04373958743821 0 0,0 0.46021509678367617,1.1144473607957033 l -45.490112785952135 18.328612370875444" fill="#3aff92" stroke="none" /><path d="M 120.6074358757038 95.95851677861258 l 21.48491685092236 -4.213572784583093 a42.89419666719989,42.89419666719989 0 0,0 0.13586078284699654,0.7257737345470666 l -21.554263357679215 3.8431209725734634" fill="#ffe415" stroke="none" /><path d="M 120.94382443527127 98.46500227214037 l 21.779970472765687 -1.5962798624420484 a42.83838874994635,42.83838874994635 0 0,0 0.047569805141516396,0.7358838306451377 l -21.804220868911617 1.2211369675438755" fill="#ffe315" stroke="none" /><line stroke="#e1ed5e" stroke-width="0.3" x1="184.98032266829074" x2="189.97916517819016" y1="98.17113171792111" y2="98.06355123074" /><path d="M 185.9800911702706 98.14961562048488 a86.0,86.0 0 0,1 -9.607161424134198,41.387399972396054" fill="none" id="id112" stroke="none" /><text fill="#e1ed5e" style="font-size:6.75px; font-family:Arial;" text-anchor="middle"><textPath startOffset="21.466115282336823" xlink:href="#id112">April</textPath></text><path d="M 120.99513854157772 99.54816195383933 l 14.930634928898643 -0.3213233816415113 a35.934092141661566,35.934092141661566 0 0,0 0.007985912012213717,0.6185176861297672 l -14.933953848028573 0.06426943745128143" fill="#ff810b" stroke="none" /><path d="M 120.70491114924044 103.5080841355445 l 42.894311377307474 7.267688915118022 a64.50564619334298,64.50564619334298 0 0,0 -0.19491013048462769,1.0931595215260914 l -42.76285480448366 -8.004967187377332" fill="#32ff4d" stroke="none" /><path d="M 119.26925614724726 108.34839909993367 l 40.09977268413325 17.373213767340292 a64.70149111786532,64.70149111786532 0 0,0 -0.4515514454525487,1.0181293033953422 l -39.794780153949425 -18.060891407228322" fill="#33ff4f" stroke="none" /><line stroke="#e1ed5e" stroke-width="0.3" x1="174.80103733775053" x2="179.2010983576182" y1="140.37084112569926" y2="142.7455964860345" /><path d="M 175.68104954172406 140.8457921977663 a86.0,86.0 0 0,1 -30.038265399797805,32.042727171017184" fill="none" id="id113" stroke="none" /><text fill="#e1ed5e" style="font-size:6.75px; font-family:Arial;" text-anchor="middle"><textPath startOffset="22.206326154141568" xlink:href="#id113">May</textPath></text><path d="M 118.12598468904814 110.60418214915192 l 37.79061230238916 22.1085112481997 a64.78260668120686,64.78260668120686 0 0,0 -0.5713798894990147,0.9576655605101876 l -37.40445153719192 -22.755738902595994" fill="#33ff50" stroke="none" /><path d="M 115.80600337817218 113.82643327865902 l 16.10532493035645 14.088267302803024 a42.39768133951877,42.39768133951877 0 0,0 -0.48523369073252964,0.5451651954650346 l -15.86043238997558 -14.363406668008926" fill="#ffdd14" stroke="none" /><path d="M 113.20401910651253 116.32954008644616 l 27.537652322777745 34.05608503471683 a64.7965663419183,64.7965663419183 0 0,0 -0.8733420286058596,0.6938357266292551 l -26.947352801454535 -34.525054675351214" fill="#33ff51" stroke="none" /><line stroke="#e1ed5e" stroke-width="0.3" x1="143.8653032363475" x2="146.44561519142675" y1="172.8068346515853" y2="177.08958963109032" /><path d="M 144.38136562736335 173.6633856474863 a86.0,86.0 0 0,1 -40.68145358897372,12.25698825130547" fill="none" id="id114" stroke="none" /><text fill="#e1ed5e" style="font-size:6.75px; font-family:Arial;" text-anchor="middle"><textPath startOffset="21.466115282336833" xlink:href="#id114">June</textPath></text><path d="M 109.2508944713604 118.85261126421891 l 4.111339714583398 8.378594054244715 a30.332949832423594,30.332949832423594 0 0,0 -0.47072019488434824,0.2259742991636218 l -3.966506851698817 -8.448122629907898" fill="#ff2c04" stroke="none" /><path d="M 108.92500713936063 119.00905698771935 l 23.64471709120796 50.36004651055916 a76.6345839462195,76.6345839462195 0 0,0 -1.1989006408276872,0.5503564818408893 l -22.774348454612852 -50.75959006273412" fill="#43ffdf" stroke="none" /><path d="M 108.2653958097858 119.30500536409082 l 9.8189608651857 22.933577112881192 a45.94716319873898,45.94716319873898 0 0,0 -0.7297471562813037,0.30503437050983173 l -9.422742249406935 -23.099196526410996" fill="#f2ff19" stroke="none" /><path d="M 103.7750983002368 120.6578951692458 l 3.8876143493958426 21.27359959957526 a42.62590079632932,42.62590079632932 0 0,0 -0.7229170671687167,0.12568839853006125 l -3.520848310755076 -21.337366576626327" fill="#ffe015" stroke="none" /><path d="M 102.70371172650421 120.8252237178851 l 1.404256556333457 10.816225952003554 a31.9070014358118,31.9070014358118 0 0,0 -0.5452641822844329,0.06602389892155575 l -1.2178649509976438 -10.83879537965046" fill="#ff4406" stroke="none" /><path d="M 101.26447882468166 120.96189622390904 l 0.39659547695692915 6.574561051218696 a27.586512050284625,27.586512050284625 0 0,0 -0.4742409524289559,0.024512840267388435 l -0.2833664561144937 -6.580413698248287" fill="#ff0000" stroke="none" /><path d="M 100.90346689309514 120.98055641714683 l 1.0410397241425073 24.175310497584277 a45.197714796274695,45.197714796274695 0 0,0 -0.7775721193670232,0.026781155994760452 l -0.624747253100832 -24.189648452005134" fill="#fbff18" stroke="none" /><line stroke="#e1ed5e" stroke-width="0.3" x1="102.19456741930631" x2="102.32365962044197" y1="184.97166512339345" y2="189.96999836594603" /><path d="M 102.22038585953345 185.97133177190398 a86.0,86.0 0 0,1 -42.740103519485714,-10.115201625700543" fill="none" id="id115" stroke="none" /><text fill="#e1ed5e" style="font-size:6.75px; font-family:Arial;" text-anchor="middle"><textPath startOffset="22.20632615414155" xlink:href="#id115">July</textPath></text><path d="M 98.37488393609728 120.93702456842531 l -1.8161457145644213 23.398136471778706 a44.46851455905362,44.46851455905362 0 0,0 -0.7626470571445781,-0.06580439714189207 l 2.2186370894505414 -23.36340782235815" fill="#fff917" stroke="none" /><path d="M 96.93821686468263 120.77559828337769 l -9.185349405952088 62.32679485013308 a84.0,84.0 0 0,0 -1.4286565455659315,-0.22312677061157693 l 10.256841815126537 -62.1594497721744" fill="#4dd2ff" stroke="none" /><line stroke="#e1ed5e" stroke-width="0.3" x1="58.666819895761336" x2="56.23545636021788" y1="174.27360380694188" y2="178.64263932499728" /><path d="M 58.180547188652646 175.14741091055294 a86.0,86.0 0 0,1 -31.652253787137756,-30.449443065178592" fill="none" id="id116" stroke="none" /><text fill="#e1ed5e" style="font-size:6.75px; font-family:Arial;" text-anchor="middle"><textPath startOffset="22.20632615414155" xlink:href="#id116">August</textPath></text><line stroke="#e1ed5e" stroke-width="0.3" x1="26.63291911575756" x2="22.317208475507996" y1="142.92168965132927" y2="145.44649492493687" /><path d="M 25.769776987707644 143.4266507060508 a86.0,86.0 0 0,1 -11.730757126820373,-40.83630448921669" fill="none" id="id117" stroke="none" /><text fill="#e1ed5e" style="font-size:6.75px; font-family:Arial;" text-anchor="middle"><textPath startOffset="21.46611528233685" xlink:href="#id117">September</textPath></text><line stroke="#e1ed5e" stroke-width="0.3" x1="15.007084014347285" x2="10.007500721073583" y1="101.09737516637583" y2="101.16192664675087" /><path d="M 14.007167355692545 101.11028546245083 a86.0,86.0 0 0,1 10.666146001902534,-42.60595125391555" fill="none" id="id118" stroke="none" /><text fill="#e1ed5e" style="font-size:6.75px; font-family:Arial;" text-anchor="middle"><textPath startOffset="22.20632615414155" xlink:href="#id118">October</textPath></text><line stroke="#e1ed5e" stroke-width="0.3" x1="26.266209847984243" x2="21.928928074336255" y1="57.711370442889674" y2="55.22380399835377" /><path d="M 25.398753493254645 57.213857153982495 a86.0,86.0 0 0,1 29.58750427330803,-30.492523968695096" fill="none" id="id119" stroke="none" /><text fill="#e1ed5e" style="font-size:6.75px; font-family:Arial;" text-anchor="middle"><textPath startOffset="21.46611528233685" xlink:href="#id119">November</textPath></text><line stroke="#e1ed5e" stroke-width="0.3" x1="56.762969772571076" x2="54.21961505331055" y1="26.818313649435495" y2="22.513508569990535" /><path d="M 56.25429882871897 25.957352633546506 a86.0,86.0 0 0,1 42.265352541879196,-11.944610805530505" fill="none" id="id120" stroke="none" /><text fill="#e1ed5e" style="font-size:6.75px; font-family:Arial;" text-anchor="middle"><textPath startOffset="22.20632615414155" xlink:href="#id120">December</textPath></text></svg>