<?xml version="1.0" encoding="utf-8" ?>
<svg baseProfile="full" height="200mm" version="1.1" viewBox="0,0,200,200" width="200mm" xmlns="http://www.w3.org/2000/svg" xmlns:ev="http://www.w3.org/2001/xml-events" xmlns:xlink="http://www.w3.org/1999/xlink"><defs /><rect fill="#1a1a1a" height="200" width="200" x="0" y="0" /><text alignment-baseline="middle" fill="#e1ed5e" style="dominant-baseline: central; font-size:9.0px; font-family:Arial;" text-anchor="middle" x="100.0" y="100.0">2019</text><line stroke="#e1ed5e" stroke-width="0.3" x1="100.0" x2="100.0" y1="15.0" y2="10.0" /><path d="M 100.0 14.0 a86.0,86.0 0 0,1 42.46469731375804,11.215312516191453" fill="none" id="id25" stroke="none" /><text fill="#e1ed5e" style="font-size:6.75px; font-family:Arial;" text-anchor="middle"><textPath startOffset="22.20632615414155" xlink:href="#id25">January</textPath></text><path d="M 101.44485096284872 79.0497635885617 l 1.039326402559528 -15.070159069791657 a36.10595557255088,36.10595557255088 0 0,0 0.6196638386092755,0.048097840027479015 l -1.2985804305311446 15.050035967575713" fill="#ff910d" stroke="none" /><path d="M 104.307194497241 79.44645832069477 l 4.580633253564665 -21.858366636347625 a43.33316800215897,43.33316800215897 0 0,0 0.7287344554971416,0.15927312640526692 l -4.956210433215334 21.776280011846485" fill="#fff417" stroke="none" /><path d="M 105.71112130821622 79.79150937346287 l 5.604675488849326 -19.831837912154185 a41.60859486498933,41.60859486498933 0 0,0 0.687551878330194,0.2007152471984796 l -5.945217584902947 19.732424336037003" fill="#ffdd14" stroke="none" /><path d="M 106.40334571778207 80.00007090966166 l 1.6744131066232013 -5.229788438159867 a26.491297329369644,26.491297329369644 0 0,0 0.4330913063931509,0.14278339448821867 l -1.7641872352587697 5.200191319412412" fill="#ff0000" stroke="none" /><path d="M 108.76106565485865 80.91482961587045 l 6.341323737841159 -13.813986650186383 a36.19995440518278,36.19995440518278 0 0,0 0.5640673253017575,0.26483717254625516 l -6.578169274442514 13.702784495000126" fill="#ff920d" stroke="none" /><line stroke="#e1ed5e" stroke-width="0.3" x1="143.23703022742887" x2="145.7803849466894" y1="26.81831364943548" y2="22.513508569990506" /><path d="M 143.74570117128098 25.957352633546492 a86.0,86.0 0 0,1 28.547481713284135,27.462654790039103" fill="none" id="id26" stroke="none" /><text fill="#e1ed5e" style="font-size:6.75px; font-family:Arial;" text-anchor="middle"><textPath startOffset="19.985693538727396" xlink:href="#id26">February</textPath></text><path d="M 111.90073688211348 82.69761687909136 l 16.283243965882523 -23.67407399556663 a49.73335715853638,49.73335715853638 0 0,0 0.7011665894574829,0.4912120045197701 l -16.688341694923658 23.390277148282923" fill="#b9ff1f" stroke="none" /><path d="M 115.19652480421416 85.50635884689758 l 44.13058808972853 -42.08941951455435 a81.98383425316449,81.98383425316449 0 0,0 0.9651944236923595,1.0296021149599988 l -44.84854983539135 41.3235479827163" fill="#4ae6ff" stroke="none" /><line stroke="#e1ed5e" stroke-width="0.3" x1="172.23445277983987" x2="176.4835382374775" y1="55.19839476539836" y2="52.563006222186495" /><path d="M 173.08426987136738 54.67131705675599 a86.0,86.0 0 0,1 12.851231095245387,41.99856678651699" fill="none" id="id27" stroke="none" /><text fill="#e1ed5e" style="font-size:6.75px; font-family:Arial;" text-anchor="middle"><textPath startOffset="22.20632615414155" xlink:href="#id27">March</textPath></text><path d="M 120.18372546131832 94.20196356495316 l 14.495388711421073 -4.163988063058834 a36.08161431957766,36.08161431957766 0 0,0 0.1663417907360605,0.5984199248526564 l -14.564917272723497 3.9138568347872256" fill="#ff900d" stroke="none" /><path d="M 120.73433829027371 96.67025291283417 l 7.439815977816002 -1.1947671169618796 a28.53513969661742,28.53513969661742 0 0,0 0.07370776944894186,0.4856421074089047 l -7.459279640704244 1.0665258971608929" fill="#ff2003" stroke="none" /><line stroke="#e1ed5e" stroke-width="0.3" x1="184.98032266829074" x2="189.97916517819016" y1="98.17113171792111" y2="98.06355123074" /><path d="M 185.9800911702706 98.14961562048488 a86.0,86.0 0 0,1 -9.607161424134198,41.387399972396054" fill="none" id="id28" stroke="none" /><text fill="#e1ed5e" style="font-size:6.75px; font-family:Arial;" text-anchor="middle"><textPath startOffset="21.466115282336823" xlink:href="#id28">April</textPath></text><line stroke="#e1ed5e" stroke-width="0.3" x1="174.80103733775053" x2="179.2010983576182" y1="140.37084112569926" y2="142.7455964860345" /><path d="M 175.68104954172406 140.8457921977663 a86.0,86.0 0 0,1 -30.038265399797805,32.042727171017184" fill="none" id="id29" stroke="none" /><text fill="#e1ed5e" style="font-size:6.75px; font-family:Arial;" text-anchor="middle"><textPath startOffset="22.206326154141568" xlink:href="#id29">May</textPath></text><path d="M 118.30583269289576 110.29060199501025 l 13.166580902671162 7.4015777363175745 a36.104377036254654,36.104377036254654 0 0,0 -0.309204768577727,0.5391245769627735 l -13.037224137941056 -7.627122159138663" fill="#ff910d" stroke="none" /><path d="M 116.27256486870786 113.27417163493432 l 29.15316424733175 23.781383515310672 a58.622615373392,58.622615373392 0 0,0 -0.6445807803056415,0.7764390735551526 l -28.739487467132562 -24.279683845979594" fill="#52ff2b" stroke="none" /><path d="M 112.63410532772338 116.77436683061366 l 18.07673204574308 24.000570405933452 a51.04655756095469,51.04655756095469 0 0,0 -0.7064236588384432,0.5225953346041895 l -17.66092341648607 -24.308175689277412" fill="#a9ff21" stroke="none" /><line stroke="#e1ed5e" stroke-width="0.3" x1="143.8653032363475" x2="146.44561519142675" y1="172.8068346515853" y2="177.08958963109032" /><path d="M 144.38136562736335 173.6633856474863 a86.0,86.0 0 0,1 -40.68145358897372,12.25698825130547" fill="none" id="id30" stroke="none" /><text fill="#e1ed5e" style="font-size:6.75px; font-family:Arial;" text-anchor="middle"><textPath startOffset="21.466115282336833" xlink:href="#id30">June</textPath></text><path d="M 110.5260780823613 118.17145234162733 l 10.836418962619822 18.707202168975318 a42.6191440377352,42.6191440377352 0 0,0 -0.6379704990964327,0.3622562993942128 l -10.51279969660219 -18.89096163416416" fill="#ffeb16" stroke="none" /><path d="M 105.88484417918355 120.15858648285463 l 8.25040792566721 28.261846299465834 a50.441487516675224,50.441487516675224 0 0,0 -0.8355724448329486,0.23614111921735095 l -7.762704312729655 -28.399676212021703" fill="#b0ff20" stroke="none" /><path d="M 100.90346689309514 120.98055641714683 l 0.9568303900843789 22.219778205743147 a43.240370228658676,43.240370228658676 0 0,0 -0.7438983690317924,0.025621363946930147 l -0.5742116693779341 -22.23295636811617" fill="#fff316" stroke="none" /><line stroke="#e1ed5e" stroke-width="0.3" x1="102.19456741930631" x2="102.32365962044197" y1="184.97166512339345" y2="189.96999836594603" /><path d="M 102.22038585953345 185.97133177190398 a86.0,86.0 0 0,1 -42.740103519485714,-10.115201625700543" fill="none" id="id31" stroke="none" /><text fill="#e1ed5e" style="font-size:6.75px; font-family:Arial;" text-anchor="middle"><textPath startOffset="22.20632615414155" xlink:href="#id31">July</textPath></text><path d="M 98.73552117531835 120.96189622390904 l -1.3382575022938863 22.184962164957383 a43.225289186038424,43.225289186038424 0 0,0 -0.7423166169802508,-0.051194500039004394 l 1.7199368800530672 -22.158639320402095" fill="#fff316" stroke="none" /><path d="M 96.22490169976321 120.6578951692458 l -5.402953703462739 29.565760235546875 a51.05538366129447,51.05538366129447 0 0,0 -0.8631578404869849,-0.165426254462301 l 5.911079158521419 -29.468376782736108" fill="#a9ff21" stroke="none" /><path d="M 93.42475214034765 119.94407469862007 l -9.542476971220333 28.94428888250952 a51.47672432628603,51.47672432628603 0 0,0 -0.8391447993397286,-0.2846834765487424 l 10.039291503497287 -28.775742419062656" fill="#a3ff21" stroke="none" /><path d="M 91.07499286063937 119.00905698771935 l -12.743454492327375 27.141832928820808 a50.98457481996435,50.98457481996435 0 0,0 -0.7912012886295343,-0.3798246997653103 l 13.208768448957152 -26.918453952555936" fill="#a9ff21" stroke="none" /><line stroke="#e1ed5e" stroke-width="0.3" x1="58.666819895761336" x2="56.23545636021788" y1="174.27360380694188" y2="178.64263932499728" /><path d="M 58.180547188652646 175.14741091055294 a86.0,86.0 0 0,1 -31.652253787137756,-30.449443065178592" fill="none" id="id32" stroke="none" /><text fill="#e1ed5e" style="font-size:6.75px; font-family:Arial;" text-anchor="middle"><textPath startOffset="22.20632615414155" xlink:href="#id32">August</textPath></text><path d="M 84.9287848128048 114.62390073753433 l -10.81915393652838 10.49804088566927 a36.075243093876836,36.075243093876836 0 0,0 -0.4285969909206561,-0.4493822314721186 l 10.998257478827995 -10.310251537614652" fill="#ff900d" stroke="none" /><path d="M 83.28015986056508 112.70617746262583 l -48.28086733687113 36.6908572878564 a81.64042512481583,81.64042512481583 0 0,0 -0.8406581959745204,-1.1261990319068498 l 48.90528679954074 -35.85434537644025" fill="#4ae9ff" stroke="none" /><line stroke="#e1ed5e" stroke-width="0.3" x1="26.63291911575756" x2="22.317208475507996" y1="142.92168965132927" y2="145.44649492493687" /><path d="M 25.769776987707644 143.4266507060508 a86.0,86.0 0 0,1 -11.730757126820373,-40.83630448921669" fill="none" id="id33" stroke="none" /><text fill="#e1ed5e" style="font-size:6.75px; font-family:Arial;" text-anchor="middle"><textPath startOffset="21.46611528233685" xlink:href="#id33">September</textPath></text><path d="M 80.73074385275274 108.34839909993369 l -55.858249018776334 24.20056862957017 a81.87537684021483,81.87537684021483 0 0,0 -0.5491460234502097,-1.2980189843233578 l 56.266546023418854 -23.235475119580656" fill="#4ae7ff" stroke="none" /><path d="M 79.86692584326677 105.97154293290107 l -57.988731206171195 17.199668333129466 a81.48571350055506,81.48571350055506 0 0,0 -0.3872797236164186,-1.348171524235337 l 58.276203566673715 -16.198939333389532" fill="#4aebff" stroke="none" /><line stroke="#e1ed5e" stroke-width="0.3" x1="15.007084014347285" x2="10.007500721073583" y1="101.09737516637583" y2="101.16192664675087" /><path d="M 14.007167355692545 101.11028546245083 a86.0,86.0 0 0,1 10.666146001902534,-42.60595125391555" fill="none" id="id34" stroke="none" /><text fill="#e1ed5e" style="font-size:6.75px; font-family:Arial;" text-anchor="middle"><textPath startOffset="22.20632615414155" xlink:href="#id34">October</textPath></text><path d="M 79.32604984820605 96.31383870115002 l -13.811486351843465 -2.462585335456194 a35.02930795804134,35.02930795804134 0 0,0 0.11094995527464968,-0.592699097562231 l 13.767050672658954 2.699962510480998" fill="#ff810b" stroke="none" /><path d="M 79.3925641242962 95.95851677861259 l -51.31492235350186 -10.063765281103546 a73.29245287590811,73.29245287590811 0 0,0 0.2534547396174061,-1.2359353229931287 l 51.134088317969464 10.945576260260077" fill="#3fffbb" stroke="none" /><line stroke="#e1ed5e" stroke-width="0.3" x1="26.266209847984243" x2="21.928928074336255" y1="57.711370442889674" y2="55.22380399835377" /><path d="M 25.398753493254645 57.213857153982495 a86.0,86.0 0 0,1 29.58750427330803,-30.492523968695096" fill="none" id="id35" stroke="none" /><text fill="#e1ed5e" style="font-size:6.75px; font-family:Arial;" text-anchor="middle"><textPath startOffset="21.46611528233685" xlink:href="#id35">November</textPath></text><path d="M 82.15384107792192 88.93136811851018 l -53.53847676623425 -33.20589564446946 a84.0,84.0 0 0,0 0.7726896150161493,-1.222209409143138 l 52.95895955497213 34.12255270132681" fill="#4dd2ff" stroke="none" /><line stroke="#e1ed5e" stroke-width="0.3" x1="56.762969772571076" x2="54.21961505331055" y1="26.818313649435495" y2="22.513508569990535" /><path d="M 56.25429882871897 25.957352633546506 a86.0,86.0 0 0,1 42.265352541879196,-11.944610805530505" fill="none" id="id36" stroke="none" /><text fill="#e1ed5e" style="font-size:6.75px; font-family:Arial;" text-anchor="middle"><textPath startOffset="22.20632615414155" xlink:href="#id36">December</textPath></text><path d="M 89.3179101791058 81.91981866633112 l -24.705584519739414 -41.81592324729014 a69.56889275539692,69.56889275539692 0 0,0 1.0362560463170416,-0.6002663877264565 l 23.98213174095705 42.23499379240664" fill="#3aff90" stroke="none" /><path d="M 98.55514903715128 79.0497635885617 l -0.9824955630614048 -14.24611593069952 a35.279955064437914,35.279955064437914 0 0,0 0.6062069858324735,-0.036568060864881645 l 0.7371265283893084 14.260917260944709" fill="#ff850c" stroke="none" /><path d="M 98.91598698831166 79.02799685794201 l -1.1460761604018532 -22.172716173904952 a43.202315939874104,43.202315939874104 0 0,0 0.7429958316046841,-0.03199496344215059 l 0.7642394964078449 22.189158863871295" fill="#fff216" stroke="none" /></svg>