<?xml version="1.0" encoding="utf-8" ?>
<svg baseProfile="full" height="200mm" version="1.1" viewBox="0,0,200,200" width="200mm" xmlns="http://www.w3.org/2000/svg" xmlns:ev="http://www.w3.org/2001/xml-events" xmlns:xlink="http://www.w3.org/1999/xlink"><defs /><rect fill="#1a1a1a" height="200" width="200" x="0" y="0" /><text alignment-baseline="middle" fill="#e1ed5e" style="dominant-baseline: central; font-size:9.0px; font-family:Arial;" text-anchor="middle" x="100.0" y="100.0">2024</text><line stroke="#e1ed5e" stroke-width="0.3" x1="100.0" x2="100.0" y1="15.0" y2="10.0" /><path d="M 100.0 14.0 a86.0,86.0 0 0,1 42.35913384403234,11.155469271406648" fill="none" id="id85" stroke="none" /><text fill="#e1ed5e" style="font-size:6.75px; font-family:Arial;" text-anchor="middle"><textPath startOffset="22.145653131862478" xlink:href="#id85">January</textPath></text><path d="M 107.06938296918511 80.22567764915836 l 15.7805700174312 -44.14106291382332 a67.87707142342786,67.87707142342786 0 0,0 1.0938255868397997,0.4016679065506536 l -16.535984755925124 43.863664158263944" fill="#35ff66" stroke="none" /><line stroke="#e1ed5e" stroke-width="0.3" x1="143.13028292997686" x2="145.6673583964461" y1="26.7553504044142" y2="22.446841604673864" /><path d="M 143.63769802327073 25.89364864446614 a86.0,86.0 0 0,1 29.32050498858742,28.57503671076993" fill="none" id="id86" stroke="none" /><text fill="#e1ed5e" style="font-size:6.75px; font-family:Arial;" text-anchor="middle"><textPath startOffset="20.669276256404974" xlink:href="#id86">February</textPath></text><path d="M 113.59037401385872 83.9905735841838 l 14.428020956719003 -16.996172408272322 a43.29434155249354,43.29434155249354 0 0,0 0.5624564183655097,0.48583645799626607 l -14.717656854847373 16.745991817811337" fill="#ffb911" stroke="none" /><path d="M 115.41159269507618 85.73525988315684 l 34.38613779554016 -31.827295788322402 a67.8549168144736,67.8549168144736 0 0,0 0.78389327754164,0.861636029908573 l -34.92742877392368 31.23232218285616" fill="#35ff66" stroke="none" /><path d="M 117.01052211995028 87.68569379921539 l 38.067110946079154 -27.557652673075523 a67.99499076104777,67.99499076104777 0 0,0 0.6763393783608429,0.9513560359653671 l -38.534565422969955 26.900119410400652" fill="#35ff68" stroke="none" /><line stroke="#e1ed5e" stroke-width="0.3" x1="172.87174338648825" x2="177.1583165268699" y1="56.24261187166439" y2="53.66864786411523" /><path d="M 173.72905801456457 55.72781907015455 a86.0,86.0 0 0,1 12.242430191666344,42.057860355516425" fill="none" id="id87" stroke="none" /><text fill="#e1ed5e" style="font-size:6.75px; font-family:Arial;" text-anchor="middle"><textPath startOffset="22.145653131862474" xlink:href="#id87">March</textPath></text><path d="M 120.26092885502905 94.47779374421319 l 45.09485098753815 -12.290802164548648 a67.73980534230266,67.73980534230266 0 0,0 0.2961536523173006,1.1245436558246837 l -45.29919412066018 11.514878004351166" fill="#35ff64" stroke="none" /><path d="M 120.77682067341334 96.94652285012252 l 46.646432275422676 -6.855419186371158 a68.14749639425682,68.14749639425682 0 0,0 0.16016441095668837,1.1588698918705531 l -46.75724120293457 6.053660986300519" fill="#36ff6a" stroke="none" /><path d="M 120.99303781780057 99.45929381324524 l 23.547638125075167 -0.6065036288790149 a44.55544752114332,44.55544752114332 0 0,0 0.013130211173173409,0.7647689747321204 l -23.554579767847006 0.2021877381778281" fill="#ffcc13" stroke="none" /><line stroke="#e1ed5e" stroke-width="0.3" x1="184.99686870605535" x2="189.99668451229388" y1="99.2704041080226" y2="99.22748670261217" /><path d="M 185.99683186730306 99.26182062694052 a86.0,86.0 0 0,1 -10.086455211305974,41.156179273409016" fill="none" id="id88" stroke="none" /><text fill="#e1ed5e" style="font-size:6.75px; font-family:Arial;" text-anchor="middle"><textPath startOffset="21.40746469413373" xlink:href="#id88">April</textPath></text><path d="M 120.592083275326 104.11899336999214 l 56.33233488031062 11.26804465511286 a78.44824438933776,78.44824438933776 0 0,0 -0.2754739582418796,1.3182426128828098 l -56.13060321124437 -12.233403719281078" fill="#45ffed" stroke="none" /><path d="M 119.83427380445688 106.89939002012753 l 44.11572751602495 15.345740063663623 a67.70855545154112,67.70855545154112 0 0,0 -0.3912904179128224,1.0945089395115335 l -43.84579692806818 -16.10078395955608" fill="#35ff64" stroke="none" /><line stroke="#e1ed5e" stroke-width="0.3" x1="174.33088141563837" x2="178.70328620479359" y1="141.23008692659167" y2="143.65538615756765" /><path d="M 175.20536237346943 141.71514677278685 a86.0,86.0 0 0,1 -30.301960400862466,31.631185727798858" fill="none" id="id89" stroke="none" /><text fill="#e1ed5e" style="font-size:6.75px; font-family:Arial;" text-anchor="middle"><textPath startOffset="22.145653131862474" xlink:href="#id89">May</textPath></text><path d="M 118.18653347947321 110.5 l 19.85924835055726 11.46574238109786 a43.93148476219573,43.93148476219573 0 0,0 -0.3826773102875815,0.6498697341193256 l -19.659497330139914 -11.804963283510736" fill="#ffc212" stroke="none" /><path d="M 117.01052211995028 112.31430620078461 l 9.013965765381835 6.525416076918523 a32.12801122377141,32.12801122377141 0 0,0 -0.3272436531215623,0.4439688644227218 l -8.900620092676446 -6.679191250610122" fill="#ff0200" stroke="none" /><path d="M 114.39649973595853 115.28858382429668 l 32.139023131375076 34.13052882206876 a67.88080423278944,67.88080423278944 0 0,0 -0.8552018999648059,0.7915621111843899 l -31.5483914600963 -34.67720867938553" fill="#35ff66" stroke="none" /><path d="M 112.45986205192187 116.90419585922612 l 27.849648047011616 37.783396255545505 a67.93812873289676,67.93812873289676 0 0,0 -0.9447249385554196,0.6839080004043316 l -27.19694209808223 -38.25590502732292" fill="#35ff67" stroke="none" /><line stroke="#e1ed5e" stroke-width="0.3" x1="143.1302829299769" x2="145.66735839644613" y1="173.24464959558577" y2="177.55315839532614" /><path d="M 143.63769802327073 174.10635135553383 a86.0,86.0 0 0,1 -40.68552437913181,11.842963189579606" fill="none" id="id90" stroke="none" /><text fill="#e1ed5e" style="font-size:6.75px; font-family:Arial;" text-anchor="middle"><textPath startOffset="21.407464694133747" xlink:href="#id90">June</textPath></text><path d="M 106.0420521117495 120.11202640906438 l 16.00495908458242 53.27530346174247 a76.62748128614045,76.62748128614045 0 0,0 -1.2630397820768244,0.3676524728235442 l -15.08805929012399 -53.54219962886853" fill="#42ffd8" stroke="none" /><line stroke="#e1ed5e" stroke-width="0.3" x1="101.45913802915013" x2="101.54496967792366" y1="184.9874750549273" y2="189.98673829345242" /><path d="M 101.47630435890484 185.9873277026323 a86.0,86.0 0 0,1 -42.54439059252881,-10.42667462771756" fill="none" id="id91" stroke="none" /><text fill="#e1ed5e" style="font-size:6.75px; font-family:Arial;" text-anchor="middle"><textPath startOffset="22.145653131862474" xlink:href="#id91">July</textPath></text><path d="M 93.27111125876986 119.89276391827306 l -5.568862648885941 16.463352899385985 a38.37970712905939,38.37970712905939 0 0,0 -0.62228898800225,-0.21646441285353513 l 5.850657408933213 -16.36533005396386" fill="#ff6b09" stroke="none" /><line stroke="#e1ed5e" stroke-width="0.3" x1="58.13341422392154" x2="55.67067388415222" y1="173.97424548756322" y2="178.32567169271397" /><path d="M 57.64086615596768 174.84453072859336 a86.0,86.0 0 0,1 -31.369924170532247,-30.572349798747897" fill="none" id="id92" stroke="none" /><text fill="#e1ed5e" style="font-size:6.75px; font-family:Arial;" text-anchor="middle"><textPath startOffset="22.145653131862474" xlink:href="#id92">August</textPath></text><path d="M 88.72937992617639 117.7192867562869 l -25.213658648785604 39.64005927327806 a67.9793878381411,67.9793878381411 0 0,0 -0.9792734062576562,-0.6347531906905748 l 25.89041768730027 -39.20139224088359" fill="#35ff68" stroke="none" /><path d="M 85.34317274990678 115.03919595460226 l -8.464672102816767 8.685499274401764 a33.128007728140595,33.128007728140595 0 0,0 -0.4038589356381446,-0.4004071706048351 l 8.612522958584874 -8.53891209356827" fill="#ff1302" stroke="none" /><path d="M 85.08716467003676 114.78537596483092 l -16.657649897917498 16.515277677370065 a44.45701807311042,44.45701807311042 0 0,0 -0.5326653585081709,-0.5465615830862665 l 16.938702057576478 -16.22689340221606" fill="#ffca12" stroke="none" /><path d="M 83.64595745247003 113.17365903436017 l -18.117688805800867 14.594327618055098 a44.264673784237075,44.264673784237075 0 0,0 -0.4715949267730597,-0.5958447841869764 l 18.365550163215488 -14.28116288995344" fill="#ffc712" stroke="none" /><line stroke="#e1ed5e" stroke-width="0.3" x1="26.387840678322732" x2="22.057713659400548" y1="142.50000000000003" y2="145.00000000000006" /><path d="M 25.521815274538298 143.00000000000003 a86.0,86.0 0 0,1 -11.493303480769221,-40.785679425670985" fill="none" id="id93" stroke="none" /><text fill="#e1ed5e" style="font-size:6.75px; font-family:Arial;" text-anchor="middle"><textPath startOffset="21.40746469413373" xlink:href="#id93">September</textPath></text><path d="M 81.81346652052679 110.50000000000001 l -40.4681129911148 23.36427592901635 a67.72855185803266,67.72855185803266 0 0,0 -0.5726824307336159,-1.0118749817356338 l 40.8632287868698 -22.666144177181597" fill="#35ff64" stroke="none" /><path d="M 79.83685265289637 105.86919833188381 l -45.4025626324653 13.216024278272895 a68.28695371155592,68.28695371155592 0 0,0 -0.31796196693093487,-1.1283348494625156 l 45.6227430914708 -12.434681504907383" fill="#36ff6c" stroke="none" /><path d="M 79.34024301695615 103.76489593502545 l -47.74589322034698 8.70089224413324 a69.53221451008385,69.53221451008385 0 0,0 -0.2039121009891727,-1.1761108109734115 l 47.88822013882838 -7.8799884002392355" fill="#38ff7d" stroke="none" /><line stroke="#e1ed5e" stroke-width="0.3" x1="15.003131293944662" x2="10.003315487706104" y1="100.72959589197737" y2="100.7725132973878" /><path d="M 14.003168132696942 100.73817937305945 a86.0,86.0 0 0,1 10.791469493833604,-42.45332614584628" fill="none" id="id94" stroke="none" /><text fill="#e1ed5e" style="font-size:6.75px; font-family:Arial;" text-anchor="middle"><textPath startOffset="22.145653131862435" xlink:href="#id94">October</textPath></text><path d="M 79.00077361379809 99.81974689727619 l -25.755116447711842 -0.22107669898561705 a46.756065269020255,46.756065269020255 0 0,0 0.013778719433074642,-0.8025413296843157 l 25.7475262966801 0.6631649446389851" fill="#ffed16" stroke="none" /><path d="M 79.03789590574601 98.7389718711861 l -23.639077061701173 -1.422068175025239 a44.68181247758427,44.68181247758427 0 0,0 0.05263100231718398,-0.765243222774596 l 23.611182098218926 1.8276548219541602" fill="#ffce13" stroke="none" /><path d="M 80.05021161711548 93.44210830539832 l -22.464365065561058 -7.384482996036791 a44.646950901068756,44.646950901068756 0 0,0 0.24558922435315603,-0.7260409034547286 l 22.334290419635536 7.769025573965681" fill="#ffcd13" stroke="none" /><path d="M 80.5471966667186 92.08871423366112 l -10.223402141495768 -4.157768649580571 a32.03652986632009,32.03652986632009 0 0,0 0.21155422491399145,-0.507653126182159 l 10.150522072045298 4.3326542852039935" fill="#ff0000" stroke="none" /><line stroke="#e1ed5e" stroke-width="0.3" x1="26.387840678322718" x2="22.05771365940052" y1="57.49999999999999" y2="54.99999999999999" /><path d="M 25.521815274538284 56.99999999999999 a86.0,86.0 0 0,1 29.574782752854787,-30.34633250058573" fill="none" id="id95" stroke="none" /><text fill="#e1ed5e" style="font-size:6.75px; font-family:Arial;" text-anchor="middle"><textPath startOffset="21.40746469413373" xlink:href="#id95">November</textPath></text><path d="M 82.18462484594161 88.88188828441811 l -39.92148397854632 -24.913958582802007 a68.05773278978604,68.05773278978604 0 0,0 0.6270460591845793,-0.9858205546202797 l 39.487920227735856 25.595592812100957" fill="#35ff69" stroke="none" /><path d="M 87.25179093698888 83.31218511350988 l -28.550202415272 -37.373131435400786 a68.03046896683836,68.03046896683836 0 0,0 0.9341134471232218,-0.7009761452728897 l 27.904435979238027 37.85772660793767" fill="#35ff68" stroke="none" /><line stroke="#e1ed5e" stroke-width="0.3" x1="56.869717070023135" x2="54.33264160355391" y1="26.7553504044142" y2="22.446841604673864" /><path d="M 56.362301976729285 25.89364864446614 a86.0,86.0 0 0,1 42.16139366436587,-11.88097634709845" fill="none" id="id96" stroke="none" /><text fill="#e1ed5e" style="font-size:6.75px; font-family:Arial;" text-anchor="middle"><textPath startOffset="22.145653131862474" xlink:href="#id96">December</textPath></text><path d="M 93.61358852112211 79.99465700312896 l -19.15923443663367 -60.01602899061309 a84.0,84.0 0 0,0 1.3774374685135353,-0.4267336487734319 l 18.126156335248517 60.33607922719316" fill="#4dd2ff" stroke="none" /></svg>