<?xml version="1.0" encoding="utf-8" ?>
<svg baseProfile="full" height="200mm" version="1.1" viewBox="0,0,200,200" width="200mm" xmlns="http://www.w3.org/2000/svg" xmlns:ev="http://www.w3.org/2001/xml-events" xmlns:xlink="http://www.w3.org/1999/xlink"><defs /><rect fill="#1a1a1a" height="200" width="200" x="0" y="0" /><text alignment-baseline="middle" fill="#e1ed5e" style="dominant-baseline: central; font-size:9.0px; font-family:Arial;" text-anchor="middle" x="100.0" y="100.0">2018</text><line stroke="#e1ed5e" stroke-width="0.3" x1="100.0" x2="100.0" y1="15.0" y2="10.0" /><path d="M 100.0 14.0 a86.0,86.0 0 0,1 42.46469731375804,11.215312516191453" fill="none" id="id13" stroke="none" /><text fill="#e1ed5e" style="font-size:6.75px; font-family:Arial;" text-anchor="middle"><textPath startOffset="22.20632615414155" xlink:href="#id13">January</textPath></text><path d="M 102.16513564639614 79.11191278185805 l 4.987260079348234 -48.114455872721685 a69.37224025230941,69.37224025230941 0 0,0 1.1867056452739255,0.1333402063520417 l -5.814732428131885 48.021479712899044" fill="#39ff8c" stroke="none" /><line stroke="#e1ed5e" stroke-width="0.3" x1="143.23703022742887" x2="145.7803849466894" y1="26.81831364943548" y2="22.513508569990506" /><path d="M 143.74570117128098 25.957352633546492 a86.0,86.0 0 0,1 28.547481713284135,27.462654790039103" fill="none" id="id14" stroke="none" /><text fill="#e1ed5e" style="font-size:6.75px; font-family:Arial;" text-anchor="middle"><textPath startOffset="19.985693538727396" xlink:href="#id14">February</textPath></text><path d="M 111.2981086023043 82.29822771554956 l 12.960964003318717 -20.307118779767574 a45.090779585370676,45.090779585370676 0 0,0 0.6506663355933494,0.42321148413153103 l -13.308597364696347 20.081008371476518" fill="#f7ff18" stroke="none" /><line stroke="#e1ed5e" stroke-width="0.3" x1="172.23445277983987" x2="176.4835382374775" y1="55.19839476539836" y2="52.563006222186495" /><path d="M 173.08426987136738 54.67131705675599 a86.0,86.0 0 0,1 12.851231095245387,41.99856678651699" fill="none" id="id15" stroke="none" /><text fill="#e1ed5e" style="font-size:6.75px; font-family:Arial;" text-anchor="middle"><textPath startOffset="22.20632615414155" xlink:href="#id15">March</textPath></text><path d="M 119.34039704204932 91.81776055985345 l 10.908790522194016 -4.615124284208326 a32.844875804152586,32.844875804152586 0 0,0 0.21580383608996784,0.5225861064985902 l -10.98661604517018 4.426663607256432" fill="#ff5b08" stroke="none" /><line stroke="#e1ed5e" stroke-width="0.3" x1="184.98032266829074" x2="189.97916517819016" y1="98.17113171792111" y2="98.06355123074" /><path d="M 185.9800911702706 98.14961562048488 a86.0,86.0 0 0,1 -9.607161424134198,41.387399972396054" fill="none" id="id16" stroke="none" /><text fill="#e1ed5e" style="font-size:6.75px; font-family:Arial;" text-anchor="middle"><textPath startOffset="21.466115282336823" xlink:href="#id16">April</textPath></text><path d="M 120.95626037817324 101.35467743843564 l 17.342467640048742 1.1210707070257424 a38.37866460279066,38.37866460279066 0 0,0 -0.04829030441299519,0.6588828368898353 l -17.320600776971407 -1.419426680412348" fill="#ffac0f" stroke="none" /><path d="M 120.64145759157962 103.86396538481128 l 21.501459694544515 4.0249529673004565 a42.874940351578175,42.874940351578175 0 0,0 -0.14203868923446175,0.7242522163096674 l -21.42899107233439 -4.394468910678069" fill="#ffe915" stroke="none" /><path d="M 120.49622156327973 104.57218783832717 l 23.6799132421056 5.282388805367345 a45.26194391726925,45.26194391726925 0 0,0 -0.17617550860384024,0.7589594801239036 l -23.585477167571206 -5.689216942839814" fill="#f5ff19" stroke="none" /><path d="M 118.64920377521936 109.65438752849418 l 8.689416355667955 4.498368611614751 a30.78474714891042,30.78474714891042 0 0,0 -0.24766694360663283,0.46849252157912885 l -8.610696903836429 -4.647276148280014" fill="#ff3c05" stroke="none" /><line stroke="#e1ed5e" stroke-width="0.3" x1="174.80103733775053" x2="179.2010983576182" y1="140.37084112569926" y2="142.7455964860345" /><path d="M 175.68104954172406 140.8457921977663 a86.0,86.0 0 0,1 -30.038265399797805,32.042727171017184" fill="none" id="id17" stroke="none" /><text fill="#e1ed5e" style="font-size:6.75px; font-family:Arial;" text-anchor="middle"><textPath startOffset="22.206326154141568" xlink:href="#id17">May</textPath></text><path d="M 116.0416608686014 113.55231037782055 l 35.00226006262806 29.570597220541142 a66.82115700712197,66.82115700712197 0 0,0 -0.7498526746607302,0.8722480664845365 l -34.48806487839655 -30.168722386187206" fill="#36ff6d" stroke="none" /><path d="M 112.34349029814194 116.9893568818739 l 6.588942124921638 9.068900815773056 a32.209777889498795,32.209777889498795 0 0,0 -0.4513551147112726,0.3220298901249269 l -6.43185968236148 -9.180974967742202" fill="#ff5107" stroke="none" /><line stroke="#e1ed5e" stroke-width="0.3" x1="143.8653032363475" x2="146.44561519142675" y1="172.8068346515853" y2="177.08958963109032" /><path d="M 144.38136562736335 173.6633856474863 a86.0,86.0 0 0,1 -40.68145358897372,12.25698825130547" fill="none" id="id18" stroke="none" /><text fill="#e1ed5e" style="font-size:6.75px; font-family:Arial;" text-anchor="middle"><textPath startOffset="21.466115282336833" xlink:href="#id18">June</textPath></text><path d="M 110.5260780823613 118.17145234162733 l 6.01956014271407 10.391728941682922 a33.00929368069423,33.00929368069423 0 0,0 -0.49411962721840486,0.28057402006472837 l -5.839791748574466 -10.49380612754228" fill="#ff5d08" stroke="none" /><path d="M 107.93186726928326 119.44442032107085 l 14.4712960830351 35.47537472278292 a59.3134522334484,59.3134522334484 0 0,0 -0.9486732624958483,0.37749666953191807 l -13.858501744497385 -35.719218236720906" fill="#4cff2c" stroke="none" /><line stroke="#e1ed5e" stroke-width="0.3" x1="102.19456741930631" x2="102.32365962044197" y1="184.97166512339345" y2="189.96999836594603" /><path d="M 102.22038585953345 185.97133177190398 a86.0,86.0 0 0,1 -42.740103519485714,-10.115201625700543" fill="none" id="id19" stroke="none" /><text fill="#e1ed5e" style="font-size:6.75px; font-family:Arial;" text-anchor="middle"><textPath startOffset="22.20632615414155" xlink:href="#id19">July</textPath></text><path d="M 98.01472825383883 120.90594882070398 l -4.5337238932094035 47.74248153277432 a68.95726425941282,68.95726425941282 0 0,0 -1.1807040216637614,-0.12238479945291973 l 5.354860511478758 -47.657367364865635" fill="#39ff87" stroke="none" /><line stroke="#e1ed5e" stroke-width="0.3" x1="58.666819895761336" x2="56.23545636021788" y1="174.27360380694188" y2="178.64263932499728" /><path d="M 58.180547188652646 175.14741091055294 a86.0,86.0 0 0,1 -31.652253787137756,-30.449443065178592" fill="none" id="id20" stroke="none" /><text fill="#e1ed5e" style="font-size:6.75px; font-family:Arial;" text-anchor="middle"><textPath startOffset="22.20632615414155" xlink:href="#id20">August</textPath></text><path d="M 88.8546689885994 117.79835938074946 l -5.217371593730088 8.331798719404043 a30.830556253220085,30.830556253220085 0 0,0 -0.4473634068272466,-0.2855284925041592 l 5.3600168026042585 -8.24075579807608" fill="#ff3c05" stroke="none" /><path d="M 88.54995079064634 117.60387380957326 l -6.564466740632244 10.092536897992405 a33.039581580196426,33.039581580196426 0 0,0 -0.47407913681706176,-0.3141938011371453 l 6.737220576189268 -9.97804507576394" fill="#ff5e08" stroke="none" /><path d="M 86.79598089348748 116.32954008644616 l -11.08246418684065 13.705792284590006 a38.6258263522858,38.6258263522858 0 0,0 -0.513410568788986,-0.42250194529976126 l 11.316744884174325 -13.512995220433062" fill="#ffaf10" stroke="none" /><path d="M 86.51685102203217 116.09983520530335 l -7.66137133433123 9.148220206638886 a32.93258327738249,32.93258327738249 0 0,0 -0.431470981195668,-0.3677089307379853 l 7.817707792103954 -9.01498688567795" fill="#ff5c08" stroke="none" /><path d="M 84.9287848128048 114.62390073753433 l -16.816554888055208 16.317438665407597 a44.43192955994688,44.43192955994688 0 0,0 -0.5278797778475423,-0.5534798366376071 l 17.094941217281708 -16.02555171218749" fill="#fffe18" stroke="none" /><path d="M 83.06392112726016 112.41649034213515 l -38.57423115113166 28.28025141724152 a68.83036618219985,68.83036618219985 0 0,0 -0.69230305885082,-0.961548398207137 l 39.055314002358095 -27.612069413583246" fill="#39ff86" stroke="none" /><line stroke="#e1ed5e" stroke-width="0.3" x1="26.63291911575756" x2="22.317208475507996" y1="142.92168965132927" y2="145.44649492493687" /><path d="M 25.769776987707644 143.4266507060508 a86.0,86.0 0 0,1 -11.730757126820373,-40.83630448921669" fill="none" id="id21" stroke="none" /><text fill="#e1ed5e" style="font-size:6.75px; font-family:Arial;" text-anchor="middle"><textPath startOffset="21.46611528233685" xlink:href="#id21">September</textPath></text><path d="M 81.87401531095188 110.60418214915194 l -15.222065540002394 8.905312370149142 a38.635641970568,38.635641970568 0 0,0 -0.330883004084671,-0.5769224078330466 l 15.373100540239442 -8.641970116457788" fill="#ffaf10" stroke="none" /><path d="M 80.73074385275274 108.34839909993369 l -10.992088201375484 4.762318718767161 a32.97938573575199,32.97938573575199 0 0,0 -0.22119591056005275,-0.5228417923482832 l 11.072435093127844 -4.572402400752719" fill="#ff5d08" stroke="none" /><path d="M 79.86692584326677 105.97154293290107 l -5.706921360501268 1.6926936072267065 a26.952660166924684,26.952660166924684 0 0,0 -0.12809875905550908,-0.44592858525062046 l 5.735212756442881 -1.59420754647149" fill="#ff0000" stroke="none" /><path d="M 79.76711848015287 105.62410040840567 l -46.33228758059939 12.87890888150602 a69.08895056485949,69.08895056485949 0 0,0 -0.30863654076273744,-1.148551383789496 l 46.5471121977039 -12.079466564540985" fill="#39ff89" stroke="none" /><line stroke="#e1ed5e" stroke-width="0.3" x1="15.007084014347285" x2="10.007500721073583" y1="101.09737516637583" y2="101.16192664675087" /><path d="M 14.007167355692545 101.11028546245083 a86.0,86.0 0 0,1 10.666146001902534,-42.60595125391555" fill="none" id="id22" stroke="none" /><text fill="#e1ed5e" style="font-size:6.75px; font-family:Arial;" text-anchor="middle"><textPath startOffset="22.20632615414155" xlink:href="#id22">October</textPath></text><path d="M 79.3925641242962 95.95851677861259 l -11.450388193835893 -2.245623960345323 a32.668513905412865,32.668513905412865 0 0,0 0.11297192767723203,-0.5508912405176711 l 11.410036970243667 2.4423908570263966" fill="#ff5808" stroke="none" /><path d="M 79.46518482838121 95.60439243477599 l -17.164262387275464 -3.674119341734999 a38.55309249780649,38.55309249780649 0 0,0 0.1444926084765241,-0.6477320316469438 l 17.098475391796903 3.969029542931902" fill="#ffae10" stroke="none" /><path d="M 80.02781315780177 93.51064311812611 l -59.91656052659468 -19.468070645621676 a84.0,84.0 0 0,0 0.4586508249129104,-1.3713075883107113 l 59.572572407909995 20.496551336854708" fill="#4dd2ff" stroke="none" /><line stroke="#e1ed5e" stroke-width="0.3" x1="26.266209847984243" x2="21.928928074336255" y1="57.711370442889674" y2="55.22380399835377" /><path d="M 25.398753493254645 57.213857153982495 a86.0,86.0 0 0,1 29.58750427330803,-30.492523968695096" fill="none" id="id23" stroke="none" /><text fill="#e1ed5e" style="font-size:6.75px; font-family:Arial;" text-anchor="middle"><textPath startOffset="21.46611528233685" xlink:href="#id23">November</textPath></text><line stroke="#e1ed5e" stroke-width="0.3" x1="56.762969772571076" x2="54.21961505331055" y1="26.818313649435495" y2="22.513508569990535" /><path d="M 56.25429882871897 25.957352633546506 a86.0,86.0 0 0,1 42.265352541879196,-11.944610805530505" fill="none" id="id24" stroke="none" /><text fill="#e1ed5e" style="font-size:6.75px; font-family:Arial;" text-anchor="middle"><textPath startOffset="22.20632615414155" xlink:href="#id24">December</textPath></text><path d="M 89.63071344664047 81.73862282372117 l -5.882183006842471 -10.359127598132249 a32.91266559256876,32.91266559256876 0 0,0 0.49506277262475235,-0.27550189697258526 l 5.702996145145673 10.458844892665018" fill="#ff5c08" stroke="none" /><path d="M 91.90106846888425 80.62456947434976 l -18.736861005469695 -44.82501763170596 a69.58345568216654,69.58345568216654 0 0,0 1.1090811917430097,-0.4524220654822555 l 17.962495944138304 45.14090058337179" fill="#3aff8f" stroke="none" /><path d="M 96.40284397218896 79.31037775812273 l -3.0326227437528908 -17.44261813645987 a38.704285587401884,38.704285587401884 0 0,0 0.6573661079183769,-0.10847104033669214 l 2.7319274296956277 17.492235439736188" fill="#ffb010" stroke="none" /></svg>