<?xml version="1.0" encoding="utf-8" ?>
<svg baseProfile="full" height="200mm" version="1.1" viewBox="0,0,200,200" width="200mm" xmlns="http://www.w3.org/2000/svg" xmlns:ev="http://www.w3.org/2001/xml-events" xmlns:xlink="http://www.w3.org/1999/xlink"><defs /><rect fill="#1a1a1a" height="200" width="200" x="0" y="0" /><text alignment-baseline="middle" fill="#e1ed5e" style="dominant-baseline: central; font-size:9.0px; font-family:Arial;" text-anchor="middle" x="100.0" y="100.0">2025</text><line stroke="#e1ed5e" stroke-width="0.3" x1="100.0" x2="100.0" y1="15.0" y2="10.0" /><path d="M 100.0 14.0 a86.0,86.0 0 0,1 42.46469731375804,11.215312516191453" fill="none" id="id97" stroke="none" /><text fill="#e1ed5e" style="font-size:6.75px; font-family:Arial;" text-anchor="middle"><textPath startOffset="22.20632615414155" xlink:href="#id97">January</textPath></text><path d="M 101.44485096284872 79.0497635885617 l 4.319183888445445 -62.627859823686144 a83.77662124993259,83.77662124993259 0 0,0 1.4378055333595747,0.11160138162872266 l -5.39657961116736 62.544233179868954" fill="#4dd4ff" stroke="none" /><line stroke="#e1ed5e" stroke-width="0.3" x1="143.23703022742887" x2="145.7803849466894" y1="26.81831364943548" y2="22.513508569990506" /><path d="M 143.74570117128098 25.957352633546492 a86.0,86.0 0 0,1 28.547481713284135,27.462654790039103" fill="none" id="id98" stroke="none" /><text fill="#e1ed5e" style="font-size:6.75px; font-family:Arial;" text-anchor="middle"><textPath startOffset="19.985693538727396" xlink:href="#id98">February</textPath></text><path d="M 110.99172775467656 82.1063720568725 l 16.41134000966442 -26.716310550555374 a52.354319165731035,52.354319165731035 0 0,0 0.7638266991890351,0.4783082089585778 l -16.86878586122572 26.42985800027385" fill="#a6ff21" stroke="none" /><path d="M 113.06298171725822 83.55741782278167 l 39.188945151774654 -49.32774653165496 a84.0,84.0 0 0,0 1.1243864057420354,0.9091756109434814 l -40.032234956081176 48.64586482344735" fill="#4dd2ff" stroke="none" /><path d="M 114.94478906791727 85.2469230424477 l 44.54318403937443 -43.97178301285236 a83.59083755387007,83.59083755387007 0 0,0 1.002038144728442,1.0326883897822856 l -45.29348644780598 43.19853042751996" fill="#4cd6ff" stroke="none" /><line stroke="#e1ed5e" stroke-width="0.3" x1="172.23445277983987" x2="176.4835382374775" y1="55.19839476539836" y2="52.563006222186495" /><path d="M 173.08426987136738 54.67131705675599 a86.0,86.0 0 0,1 12.851231095245387,41.99856678651699" fill="none" id="id99" stroke="none" /><text fill="#e1ed5e" style="font-size:6.75px; font-family:Arial;" text-anchor="middle"><textPath startOffset="22.20632615414155" xlink:href="#id99">March</textPath></text><path d="M 117.84615892207809 88.93136811851018 l 14.054349665492332 -8.716857417907596 a37.53808779043258,37.53808779043258 0 0,0 0.3358482694460509,0.5520462496127314 l -14.202313733224607 8.473643395087782" fill="#ff8f0d" stroke="none" /><path d="M 119.196687751892 91.48605970444005 l 28.35239913417413 -12.574598106928773 a52.01578717708604,52.01578717708604 0 0,0 0.3559596120092011,0.8216038619828885 l -28.564649456026014 12.084695100359282" fill="#aaff21" stroke="none" /><path d="M 120.08093135843002 93.85539295169968 l 59.58903274784864 -18.233775320890086 a83.31631717517394,83.31631717517394 0 0,0 0.4078298133323274,1.3749993874962216 l -59.894068458292665 17.205346546647334" fill="#4cd9ff" stroke="none" /><path d="M 120.6074358757038 95.95851677861258 l 30.67905438333743 -6.016706022337977 a52.26347916043596,52.26347916043596 0 0,0 0.16553654677659776,0.8843028520848282 l -30.778076654023888 5.487725092790586" fill="#a7ff21" stroke="none" /><path d="M 120.96714384426684 98.82574320788733 l 31.528615199506078 -1.7657479158302254 a52.57802150390022,52.57802150390022 0 0,0 0.042829534959684,0.904063790514069 l -31.55433834269926 1.2227730186931565" fill="#a3ff22" stroke="none" /><line stroke="#e1ed5e" stroke-width="0.3" x1="184.98032266829074" x2="189.97916517819016" y1="98.17113171792111" y2="98.06355123074" /><path d="M 185.9800911702706 98.14961562048488 a86.0,86.0 0 0,1 -9.607161424134198,41.387399972396054" fill="none" id="id100" stroke="none" /><text fill="#e1ed5e" style="font-size:6.75px; font-family:Arial;" text-anchor="middle"><textPath startOffset="21.466115282336823" xlink:href="#id100">April</textPath></text><path d="M 120.95626037817324 101.35467743843564 l 61.525370328657374 3.977190088859506 a82.65378524536312,82.65378524536312 0 0,0 -0.10399987836196593,1.4189957119609664 l -61.44779389163107 -5.035658937317243" fill="#4be0ff" stroke="none" /><line stroke="#e1ed5e" stroke-width="0.3" x1="174.80103733775053" x2="179.2010983576182" y1="140.37084112569926" y2="142.7455964860345" /><path d="M 175.68104954172406 140.8457921977663 a86.0,86.0 0 0,1 -30.038265399797805,32.042727171017184" fill="none" id="id101" stroke="none" /><text fill="#e1ed5e" style="font-size:6.75px; font-family:Arial;" text-anchor="middle"><textPath startOffset="22.206326154141568" xlink:href="#id101">May</textPath></text><line stroke="#e1ed5e" stroke-width="0.3" x1="143.8653032363475" x2="146.44561519142675" y1="172.8068346515853" y2="177.08958963109032" /><path d="M 144.38136562736335 173.6633856474863 a86.0,86.0 0 0,1 -40.68145358897372,12.25698825130547" fill="none" id="id102" stroke="none" /><text fill="#e1ed5e" style="font-size:6.75px; font-family:Arial;" text-anchor="middle"><textPath startOffset="21.466115282336833" xlink:href="#id102">June</textPath></text><path d="M 104.13013068566511 120.58985236759428 l 4.5703355316143375 22.784396191849716 a44.23825889989851,44.23825889989851 0 0,0 -0.7479054564012142,0.14333786074928137 l -4.177462460641419 -22.859691250947467" fill="#ffee16" stroke="none" /><path d="M 101.62511606390274 120.93702456842531 l 1.791743442814398 23.08375217978604 a44.15318464623485,44.15318464623485 0 0,0 -0.7582515530302979,0.052293466525238134 l -1.3941291290051696 -23.111173990827563" fill="#ffed16" stroke="none" /><line stroke="#e1ed5e" stroke-width="0.3" x1="102.19456741930631" x2="102.32365962044197" y1="184.97166512339345" y2="189.96999836594603" /><path d="M 102.22038585953345 185.97133177190398 a86.0,86.0 0 0,1 -42.740103519485714,-10.115201625700543" fill="none" id="id103" stroke="none" /><text fill="#e1ed5e" style="font-size:6.75px; font-family:Arial;" text-anchor="middle"><textPath startOffset="22.20632615414155" xlink:href="#id103">July</textPath></text><path d="M 98.73552117531835 120.96189622390904 l -3.780907183415362 62.677984371101395 a83.79191814201596,83.79191814201596 0 0,0 -1.43897552513212,-0.09924017715942172 l 4.859245469326412 -62.603615849425694" fill="#4dd4ff" stroke="none" /><path d="M 96.22490169976321 120.6578951692458 l -7.0726975288354135 38.70284493129653 a60.34378294102361,60.34378294102361 0 0,0 -1.0201903430152128,-0.19552190731234106 l 7.737855486422321 -38.57536582563573" fill="#48ff2c" stroke="none" /><path d="M 94.11515582081647 120.15858648285463 l -6.532929223788787 22.378607612068663 a44.31268416330413,44.31268416330413 0 0,0 -0.7303680446973788,-0.22005390056689192 l 6.917172242926411 -22.262838342396044" fill="#ffef16" stroke="none" /><path d="M 91.7346041902142 119.30500536409082 l -9.122628844299648 21.307194818826037 a44.17798326167001,44.17798326167001 0 0,0 -0.6964960425359626,-0.30532339691584237 l 9.488045561493353 -21.14700686861574" fill="#ffed16" stroke="none" /><line stroke="#e1ed5e" stroke-width="0.3" x1="58.666819895761336" x2="56.23545636021788" y1="174.27360380694188" y2="178.64263932499728" /><path d="M 58.180547188652646 175.14741091055294 a86.0,86.0 0 0,1 -31.652253787137756,-30.449443065178592" fill="none" id="id104" stroke="none" /><text fill="#e1ed5e" style="font-size:6.75px; font-family:Arial;" text-anchor="middle"><textPath startOffset="22.20632615414155" xlink:href="#id104">August</textPath></text><path d="M 89.4739219176387 118.17145234162733 l -3.7260523852106684 6.432384674565685 a28.43364237631335,28.43364237631335 0 0,0 -0.42140300243798173,-0.24897232166883065 l 3.836223258677032 -6.367293780603105" fill="#ff0100" stroke="none" /><path d="M 88.24862548938628 117.40417183066458 l -4.120665715362366 6.102841340144609 a28.36373263778234,28.36373263778234 0 0,0 -0.4022829758362142,-0.2766938989921623 l 4.22510557582147 -6.0310066517873455" fill="#ff0000" stroke="none" /><path d="M 87.36589467227662 116.77436683061367 l -18.878750904554494 25.065414982878043 a52.379647288969075,52.379647288969075 0 0,0 -0.7155340961356785,-0.5486410329777153 l 19.307413729183658 -24.73673460807296" fill="#a5ff21" stroke="none" /><path d="M 86.79598089348748 116.32954008644616 l -4.632038868162191 5.728487952757073 a28.366909684599655,28.366909684599655 0 0,0 -0.37705008827841546,-0.31028655321381204 l 4.729959084985294 -5.64790628068608" fill="#ff0000" stroke="none" /><path d="M 85.18274418774928 114.88116024355367 l -43.99301337987159 44.18274814162273 a83.34982325225653,83.34982325225653 0 0,0 -1.0079747149940403,-1.021073064603544 l 44.74702871992117 -43.41893458303853" fill="#4cd9ff" stroke="none" /><path d="M 83.95833913139862 113.55231037782056 l -24.967273644794833 21.092843471371776 a53.68444276658021,53.68444276658021 0 0,0 -0.5902834561090418,-0.7110344487449932 l 25.32665310079741 -20.65994776551302" fill="#95ff23" stroke="none" /><path d="M 83.28015986056508 112.70617746262583 l -5.863966834362876 4.456298781029201 a28.3651005329398,28.3651005329398 0 0,0 -0.292077781395689,-0.39128591884839636 l 5.93980588245365 -4.354699982671496" fill="#ff0000" stroke="none" /><path d="M 82.05923443525364 110.91462005526583 l -53.81213092934064 32.73767562138452 a83.98810078298514,83.98810078298514 0 0,0 -0.7407715466091978,-1.2415757212167704 l 54.36768335164807 -31.80653780628164" fill="#4dd2ff" stroke="none" /><line stroke="#e1ed5e" stroke-width="0.3" x1="26.63291911575756" x2="22.317208475507996" y1="142.92168965132927" y2="145.44649492493687" /><path d="M 25.769776987707644 143.4266507060508 a86.0,86.0 0 0,1 -11.730757126820373,-40.83630448921669" fill="none" id="id105" stroke="none" /><text fill="#e1ed5e" style="font-size:6.75px; font-family:Arial;" text-anchor="middle"><textPath startOffset="21.46611528233685" xlink:href="#id105">September</textPath></text><path d="M 81.02952815118164 109.00673069616217 l -28.209890629614623 13.393387886920353 a52.22788446924197,52.22788446924197 0 0,0 -0.3785909392845535,-0.8154512021878213 l 28.436256185739005 -12.905816617453706" fill="#a7ff21" stroke="none" /><path d="M 80.73074385275274 108.34839909993369 l -6.7646143781450006 2.9307670288026064 a28.372204762628513,28.372204762628513 0 0,0 -0.19029510486796153,-0.4498014156426174 l 6.8140604642052685 -2.8138910874938303" fill="#ff0000" stroke="none" /><path d="M 80.45479744820244 107.68017299344265 l -6.858379857992566 2.694960240219214 a28.368865921760317,28.368865921760317 0 0,0 -0.1746788878632556,-0.4560314557550585 l 6.903753025449331 -2.5765052176309977" fill="#ff0000" stroke="none" /><line stroke="#e1ed5e" stroke-width="0.3" x1="15.007084014347285" x2="10.007500721073583" y1="101.09737516637583" y2="101.16192664675087" /><path d="M 14.007167355692545 101.11028546245083 a86.0,86.0 0 0,1 10.666146001902534,-42.60595125391555" fill="none" id="id106" stroke="none" /><text fill="#e1ed5e" style="font-size:6.75px; font-family:Arial;" text-anchor="middle"><textPath startOffset="22.20632615414155" xlink:href="#id106">October</textPath></text><line stroke="#e1ed5e" stroke-width="0.3" x1="26.266209847984243" x2="21.928928074336255" y1="57.711370442889674" y2="55.22380399835377" /><path d="M 25.398753493254645 57.213857153982495 a86.0,86.0 0 0,1 29.58750427330803,-30.492523968695096" fill="none" id="id107" stroke="none" /><text fill="#e1ed5e" style="font-size:6.75px; font-family:Arial;" text-anchor="middle"><textPath startOffset="21.46611528233685" xlink:href="#id107">November</textPath></text><line stroke="#e1ed5e" stroke-width="0.3" x1="56.762969772571076" x2="54.21961505331055" y1="26.818313649435495" y2="22.513508569990535" /><path d="M 56.25429882871897 25.957352633546506 a86.0,86.0 0 0,1 42.265352541879196,-11.944610805530505" fill="none" id="id108" stroke="none" /><text fill="#e1ed5e" style="font-size:6.75px; font-family:Arial;" text-anchor="middle"><textPath startOffset="22.20632615414155" xlink:href="#id108">December</textPath></text></svg>