<?xml version="1.0" encoding="utf-8" ?>
<svg baseProfile="full" height="200mm" version="1.1" viewBox="0,0,200,200" width="200mm" xmlns="http://www.w3.org/2000/svg" xmlns:ev="http://www.w3.org/2001/xml-events" xmlns:xlink="http://www.w3.org/1999/xlink"><defs /><rect fill="#1a1a1a" height="200" width="200" x="0" y="0" /><text alignment-baseline="middle" fill="#e1ed5e" style="dominant-baseline: central; font-size:9.0px; font-family:Arial;" text-anchor="middle" x="100.0" y="100.0">2020</text><line stroke="#e1ed5e" stroke-width="0.3" x1="100.0" x2="100.0" y1="15.0" y2="10.0" /><path d="M 100.0 14.0 a86.0,86.0 0 0,1 42.35913384403234,11.155469271406648" fill="none" id="id37" stroke="none" /><text fill="#e1ed5e" style="font-size:6.75px; font-family:Arial;" text-anchor="middle"><textPath startOffset="22.145653131862478" xlink:href="#id37">January</textPath></text><path d="M 100.0 79.0 l 0.0 -31.26675987504514 a52.26675987504514,52.26675987504514 0 0,0 0.8972284352251326,0.007701627018395368 l -0.5367355103762779 31.26215264622118" fill="#e6ff1a" stroke="none" /><path d="M 101.44090949804482 79.04949213459386 l 4.322728494134444 -62.8515235962184 a84.0,84.0 0 0,0 1.437724020899066,0.1112889320197854 l -5.401021509808744 62.76805689720356" fill="#4dd2ff" stroke="none" /><path d="M 108.4095320186766 80.7573450057729 l 6.295335344452787 -14.404959257808068 a36.72049930244669,36.72049930244669 0 0,0 0.5754392457563968,0.2573866553351203 l -6.541687993064815 14.294768851563095" fill="#ff1101" stroke="none" /><path d="M 108.73861861582097 80.90454125486305 l 12.392843513731302 -27.080599629666064 a50.78156219304323,50.78156219304323 0 0,0 0.7895596753935571,0.3695537952893422 l -12.855891902996365 26.86386960280619" fill="#fcff18" stroke="none" /><line stroke="#e1ed5e" stroke-width="0.3" x1="143.13028292997686" x2="145.6673583964461" y1="26.7553504044142" y2="22.446841604673864" /><path d="M 143.63769802327073 25.89364864446614 a86.0,86.0 0 0,1 29.32050498858742,28.57503671076993" fill="none" id="id38" stroke="none" /><text fill="#e1ed5e" style="font-size:6.75px; font-family:Arial;" text-anchor="middle"><textPath startOffset="20.669276256404974" xlink:href="#id38">February</textPath></text><line stroke="#e1ed5e" stroke-width="0.3" x1="172.87174338648825" x2="177.1583165268699" y1="56.24261187166439" y2="53.66864786411523" /><path d="M 173.72905801456457 55.72781907015455 a86.0,86.0 0 0,1 12.242430191666344,42.057860355516425" fill="none" id="id39" stroke="none" /><text fill="#e1ed5e" style="font-size:6.75px; font-family:Arial;" text-anchor="middle"><textPath startOffset="22.145653131862474" xlink:href="#id39">March</textPath></text><line stroke="#e1ed5e" stroke-width="0.3" x1="184.99686870605535" x2="189.99668451229388" y1="99.2704041080226" y2="99.22748670261217" /><path d="M 185.99683186730306 99.26182062694052 a86.0,86.0 0 0,1 -10.086455211305974,41.156179273409016" fill="none" id="id40" stroke="none" /><text fill="#e1ed5e" style="font-size:6.75px; font-family:Arial;" text-anchor="middle"><textPath startOffset="21.40746469413373" xlink:href="#id40">April</textPath></text><path d="M 120.93736805541906 101.62068470465957 l 14.758560881944822 1.1424059519249965 a35.802709571732656,35.802709571732656 0 0,0 -0.05269200240319888,0.6123609392899269 l -14.736775256843883 -1.3955879385905807" fill="#ff0000" stroke="none" /><path d="M 120.7213421655516 103.40968896794604 l 30.843427686189898 5.075274288461781 a52.25820597117414,52.25820597117414 0 0,0 -0.15325386439348426,0.8839275641919992 l -30.75175900430418 -5.603994885574369" fill="#e6ff1a" stroke="none" /><path d="M 120.16314734710363 105.8691983318838 l 22.027607732147597 6.411915577033292 a43.94184307697119,43.94184307697119 0 0,0 -0.21703855570316574,0.7224507639712119 l -21.914292856440802 -6.789103944595228" fill="#ff920d" stroke="none" /><line stroke="#e1ed5e" stroke-width="0.3" x1="174.33088141563837" x2="178.70328620479359" y1="141.23008692659167" y2="143.65538615756765" /><path d="M 175.20536237346943 141.71514677278685 a86.0,86.0 0 0,1 -30.301960400862466,31.631185727798858" fill="none" id="id41" stroke="none" /><text fill="#e1ed5e" style="font-size:6.75px; font-family:Arial;" text-anchor="middle"><textPath startOffset="22.145653131862474" xlink:href="#id41">May</textPath></text><path d="M 116.57777611688842 112.89097897827486 l 24.626918073404184 19.150040448461397 a52.196300148765545,52.196300148765545 0 0,0 -0.5560983114089382,0.7026120501666233 l -24.294553331353686 -19.569972442542703" fill="#e7ff1a" stroke="none" /><path d="M 115.16444852881244 114.52719865689866 l 22.42394628629546 21.481633292084496 a52.053082551435324,52.053082551435324 0 0,0 -0.6236782195584641,0.6399487963193051 l -22.051881265586193 -21.863404780471537" fill="#e9ff1a" stroke="none" /><path d="M 110.96478420261333 117.91015095944535 l 16.287956313202454 26.60515255017777 a52.19505831183879,52.19505831183879 0 0,0 -0.7681801330363749,0.46127009828039817 l -15.82884342360864 -26.880836648994094" fill="#e7ff1a" stroke="none" /><line stroke="#e1ed5e" stroke-width="0.3" x1="143.1302829299769" x2="145.66735839644613" y1="173.24464959558577" y2="177.55315839532614" /><path d="M 143.63769802327073 174.10635135553383 a86.0,86.0 0 0,1 -40.68552437913181,11.842963189579606" fill="none" id="id42" stroke="none" /><text fill="#e1ed5e" style="font-size:6.75px; font-family:Arial;" text-anchor="middle"><textPath startOffset="21.407464694133747" xlink:href="#id42">June</textPath></text><path d="M 106.72888874123015 119.89276391827305 l 4.948054378706058 14.628043558999646 a36.44224402406021,36.44224402406021 0 0,0 -0.5943161889206361,0.195363535917689 l -4.696215452137688 -14.710828016319354" fill="#ff0c01" stroke="none" /><path d="M 106.38641147887787 120.00534299687104 l 4.67791641787599 14.653506552125027 a36.382072561452986,36.382072561452986 0 0,0 -0.59659559438479,0.1848268401677173 l -4.425680190619576 -14.73164998009939" fill="#ff0b01" stroke="none" /><path d="M 104.29559338865022 120.5559693870025 l 4.750103375833356 22.73096421014132 a44.2219770046357,44.2219770046357 0 0,0 -0.7444106803765642,0.14890298451232648 l -4.359196209925833 -22.80915659131651" fill="#ff970d" stroke="none" /><path d="M 101.80034050326958 120.92268563240118 l 2.666814820622416 30.992430615419096 a52.10695511841457,52.10695511841457 0 0,0 -0.8918502503530199,0.06903484983251486 l -2.13439557549416 -31.033643232246664" fill="#e8ff1a" stroke="none" /><line stroke="#e1ed5e" stroke-width="0.3" x1="101.45913802915013" x2="101.54496967792366" y1="184.9874750549273" y2="189.98673829345242" /><path d="M 101.47630435890484 185.9873277026323 a86.0,86.0 0 0,1 -42.54439059252881,-10.42667462771756" fill="none" id="id43" stroke="none" /><text fill="#e1ed5e" style="font-size:6.75px; font-family:Arial;" text-anchor="middle"><textPath startOffset="22.145653131862474" xlink:href="#id43">July</textPath></text><path d="M 99.27912038922189 120.98762331915562 l -1.0698682848467278 31.14804778461931 a52.16641620301969,52.16641620301969 0 0,0 -0.8947142513382238,-0.03842287967095018 l 1.6044082967857902 -31.125092336522528" fill="#e7ff1a" stroke="none" /><path d="M 97.84075906011543 120.88869738790638 l -3.531535107958514 34.16439861910745 a55.34643901809931,55.34643901809931 0 0,0 -0.9442210511631283,-0.10580193823947198 l 4.117492060722442 -34.09874092036101" fill="#b8ff1f" stroke="none" /><path d="M 96.76829788921471 120.74984581791261 l -3.3075845228667125 21.237065337844857 a42.493093298541254,42.493093298541254 0 0,0 -0.7197975833883918,-0.11844241843145326 l 3.671659609308168 -21.177156920917735" fill="#ff790b" stroke="none" /><path d="M 94.30408787586889 120.21278271476187 l -8.410803517680105 29.846974506362557 a52.009409910484855,52.009409910484855 0 0,0 -0.8572636429740554,-0.24953695257555092 l 8.921927173035767 -29.69819385948449" fill="#eaff1a" stroke="none" /><path d="M 91.92203290615298 119.3841803445677 l -12.049029553560285 28.913284633350564 a52.32342799681598,52.32342799681598 0 0,0 -0.8261244509804594,-0.35262340372715884 l 12.543589079711175 -28.702186579964003" fill="#e5ff1a" stroke="none" /><line stroke="#e1ed5e" stroke-width="0.3" x1="58.13341422392154" x2="55.67067388415222" y1="173.97424548756322" y2="178.32567169271397" /><path d="M 57.64086615596768 174.84453072859336 a86.0,86.0 0 0,1 -31.369924170532247,-30.572349798747897" fill="none" id="id44" stroke="none" /><text fill="#e1ed5e" style="font-size:6.75px; font-family:Arial;" text-anchor="middle"><textPath startOffset="22.145653131862474" xlink:href="#id44">August</textPath></text><path d="M 89.65649057296885 118.27599006163327 l -10.90860372263179 19.274457535670003 a43.14728760981268,43.14728760981268 0 0,0 -0.6414718182465319,-0.37035392694219665 l 11.23786800873872 -19.084356711451633" fill="#ff840c" stroke="none" /><path d="M 87.54013794807813 116.9041958592261 l -13.605924878743714 18.459050191548872 a43.93158794719933,43.93158794719933 0 0,0 -0.6032162893799395,-0.4526647492310224 l 13.92079415703442 -18.222766415053837" fill="#ff920d" stroke="none" /><path d="M 85.60350026404147 115.28858382429668 l -30.802374784585083 32.71105459789578 a65.93105145972618,65.93105145972618 0 0,0 -0.8173174633712642,-0.7829716414406728 l 31.35936473382166 -32.17747082614953" fill="#30ff37" stroke="none" /><path d="M 83.64595745247003 113.17365903436017 l -24.507933097350538 19.741856077668675 a52.47029815708128,52.47029815708128 0 0,0 -0.5590174805707279,-0.7063003250408176 l 24.843217008562828 -19.318235808713176" fill="#e2ff1b" stroke="none" /><line stroke="#e1ed5e" stroke-width="0.3" x1="26.387840678322732" x2="22.057713659400548" y1="142.50000000000003" y2="145.00000000000006" /><path d="M 25.521815274538298 143.00000000000003 a86.0,86.0 0 0,1 -11.493303480769221,-40.785679425670985" fill="none" id="id45" stroke="none" /><text fill="#e1ed5e" style="font-size:6.75px; font-family:Arial;" text-anchor="middle"><textPath startOffset="21.40746469413373" xlink:href="#id45">September</textPath></text><line stroke="#e1ed5e" stroke-width="0.3" x1="15.003131293944662" x2="10.003315487706104" y1="100.72959589197737" y2="100.7725132973878" /><path d="M 14.003168132696942 100.73817937305945 a86.0,86.0 0 0,1 10.791469493833604,-42.45332614584628" fill="none" id="id46" stroke="none" /><text fill="#e1ed5e" style="font-size:6.75px; font-family:Arial;" text-anchor="middle"><textPath startOffset="22.145653131862435" xlink:href="#id46">October</textPath></text><path d="M 79.73907114497095 94.47779374421319 l -30.056259236418924 -8.191967109134035 a52.1526410502216,52.1526410502216 0 0,0 0.24283637543732003,-0.8617406281884444 l 29.911204368907022 8.706715661225493" fill="#e7ff1a" stroke="none" /><path d="M 80.5471966667186 92.08871423366112 l -28.833491507210727 -11.726329981683428 a52.12678986557594,52.12678986557594 0 0,0 0.3442208838872949,-0.8260048121166793 l 28.627944778786954 12.219567303241371" fill="#e8ff1a" stroke="none" /><line stroke="#e1ed5e" stroke-width="0.3" x1="26.387840678322718" x2="22.05771365940052" y1="57.49999999999999" y2="54.99999999999999" /><path d="M 25.521815274538284 56.99999999999999 a86.0,86.0 0 0,1 29.574782752854787,-30.34633250058573" fill="none" id="id47" stroke="none" /><text fill="#e1ed5e" style="font-size:6.75px; font-family:Arial;" text-anchor="middle"><textPath startOffset="21.40746469413373" xlink:href="#id47">November</textPath></text><line stroke="#e1ed5e" stroke-width="0.3" x1="56.869717070023135" x2="54.33264160355391" y1="26.7553504044142" y2="22.446841604673864" /><path d="M 56.362301976729285 25.89364864446614 a86.0,86.0 0 0,1 42.16139366436587,-11.88097634709845" fill="none" id="id48" stroke="none" /><text fill="#e1ed5e" style="font-size:6.75px; font-family:Arial;" text-anchor="middle"><textPath startOffset="22.145653131862474" xlink:href="#id48">December</textPath></text></svg>