<?xml version="1.0" encoding="utf-8" ?>
<svg baseProfile="full" height="200mm" version="1.1" viewBox="0,0,200,200" width="200mm" xmlns="http://www.w3.org/2000/svg" xmlns:ev="http://www.w3.org/2001/xml-events" xmlns:xlink="http://www.w3.org/1999/xlink"><defs /><rect fill="#1a1a1a" height="200" width="200" x="0" y="0" /><text alignment-baseline="middle" fill="#e1ed5e" style="dominant-baseline: central; font-size:9.0px; font-family:Arial;" text-anchor="middle" x="100.0" y="100.0">2017</text><line stroke="#e1ed5e" stroke-width="0.3" x1="100.0" x2="100.0" y1="15.0" y2="10.0" /><path d="M 100.0 14.0 a86.0,86.0 0 0,1 42.46469731375804,11.215312516191453" fill="none" id="id1" stroke="none" /><text fill="#e1ed5e" style="font-size:6.75px; font-family:Arial;" text-anchor="middle"><textPath startOffset="22.20632615414155" xlink:href="#id1">January</textPath></text><line stroke="#e1ed5e" stroke-width="0.3" x1="143.23703022742887" x2="145.7803849466894" y1="26.818313649435467" y2="22.513508569990506" /><path d="M 143.74570117128098 25.957352633546478 a86.0,86.0 0 0,1 28.547481713284135,27.462654790039114" fill="none" id="id2" stroke="none" /><text fill="#e1ed5e" style="font-size:6.75px; font-family:Arial;" text-anchor="middle"><textPath startOffset="19.985693538727396" xlink:href="#id2">February</textPath></text><line stroke="#e1ed5e" stroke-width="0.3" x1="172.23445277983987" x2="176.4835382374775" y1="55.19839476539836" y2="52.563006222186495" /><path d="M 173.08426987136738 54.67131705675599 a86.0,86.0 0 0,1 12.851231095245387,41.99856678651699" fill="none" id="id3" stroke="none" /><text fill="#e1ed5e" style="font-size:6.75px; font-family:Arial;" text-anchor="middle"><textPath startOffset="22.20632615414155" xlink:href="#id3">March</textPath></text><line stroke="#e1ed5e" stroke-width="0.3" x1="184.98032266829074" x2="189.97916517819016" y1="98.17113171792111" y2="98.06355123074" /><path d="M 185.9800911702706 98.14961562048488 a86.0,86.0 0 0,1 -9.607161424134198,41.387399972396054" fill="none" id="id4" stroke="none" /><text fill="#e1ed5e" style="font-size:6.75px; font-family:Arial;" text-anchor="middle"><textPath startOffset="21.466115282336823" xlink:href="#id4">April</textPath></text><line stroke="#e1ed5e" stroke-width="0.3" x1="174.80103733775053" x2="179.2010983576182" y1="140.37084112569926" y2="142.7455964860345" /><path d="M 175.68104954172406 140.8457921977663 a86.0,86.0 0 0,1 -30.038265399797805,32.042727171017184" fill="none" id="id5" stroke="none" /><text fill="#e1ed5e" style="font-size:6.75px; font-family:Arial;" text-anchor="middle"><textPath startOffset="22.206326154141568" xlink:href="#id5">May</textPath></text><line stroke="#e1ed5e" stroke-width="0.3" x1="143.8653032363475" x2="146.44561519142675" y1="172.8068346515853" y2="177.08958963109032" /><path d="M 144.38136562736335 173.6633856474863 a86.0,86.0 0 0,1 -40.68145358897372,12.25698825130547" fill="none" id="id6" stroke="none" /><text fill="#e1ed5e" style="font-size:6.75px; font-family:Arial;" text-anchor="middle"><textPath startOffset="21.466115282336833" xlink:href="#id6">June</textPath></text><path d="M 102.70371172650421 120.8252237178851 l 0.9097575532411094 7.007368570235172 a28.066178110180847,28.066178110180847 0 0,0 -0.47962769826188295,0.05807623478466849 l -0.7890024319278461 -7.021990333745191" fill="#ff2603" stroke="none" /><path d="M 102.34483914955558 120.86867818915974 l 0.5100083996661154 4.538989878439085 a25.567552701863708,25.567552701863708 0 0,0 -0.43777421600754957,0.04537708743995909 l -0.43180158705296323 -4.547096334334802" fill="#ff0000" stroke="none" /><path d="M 101.98527174616119 120.90594882070398 l 0.5667252690677073 5.967913205554283 a26.99476150982081,26.99476150982081 0 0,0 -0.4629674642368512,0.03994678087984946 l -0.46391348708931407 -5.976784238712796" fill="#ff1602" stroke="none" /><path d="M 101.26447882468166 120.96189622390904 l 0.4331540360722957 7.180610521809779 a28.19366317566308,28.19366317566308 0 0,0 -0.4846785143593276,0.025052342997107888 l -0.30948745329948846 -7.187002671569089" fill="#ff2803" stroke="none" /><line stroke="#e1ed5e" stroke-width="0.3" x1="102.19456741930631" x2="102.32365962044197" y1="184.97166512339345" y2="189.96999836594603" /><path d="M 102.22038585953345 185.97133177190398 a86.0,86.0 0 0,1 -42.740103519485714,-10.115201625700543" fill="none" id="id7" stroke="none" /><text fill="#e1ed5e" style="font-size:6.75px; font-family:Arial;" text-anchor="middle"><textPath startOffset="22.20632615414155" xlink:href="#id7">July</textPath></text><path d="M 95.51606077576429 120.51570834832081 l -1.4712208014086534 6.7313884886179425 a27.89028893669893,27.89028893669893 0 0,0 -0.4681316608475024,-0.1065452419030521 l 1.586872611649018 -6.705066513137203" fill="#ff2403" stroke="none" /><path d="M 90.42595943632237 118.69057910512821 l -3.2701497654783305 6.384033206332175 a28.17284876936701,28.17284876936701 0 0,0 -0.42971522678921314,-0.22480669706025957 l 3.3795558947940396 -6.326797090327198" fill="#ff2803" stroke="none" /><line stroke="#e1ed5e" stroke-width="0.3" x1="58.666819895761336" x2="56.23545636021788" y1="174.27360380694188" y2="178.64263932499728" /><path d="M 58.180547188652646 175.14741091055294 a86.0,86.0 0 0,1 -31.652253787137756,-30.449443065178592" fill="none" id="id8" stroke="none" /><text fill="#e1ed5e" style="font-size:6.75px; font-family:Arial;" text-anchor="middle"><textPath startOffset="22.20632615414155" xlink:href="#id8">August</textPath></text><path d="M 87.65650970185807 116.9893568818739 l -4.069604498912971 5.601330055771965 a27.923624713346836,27.923624713346836 0 0,0 -0.3864297629566762,-0.2858715004044709 l 4.165419232288212 -5.530448606627725" fill="#ff2403" stroke="none" /><path d="M 85.97065885151581 115.62618273729859 l -5.228147060991817 5.823222950234947 a28.825819268261974,28.825819268261974 0 0,0 -0.36636305474695924,-0.3346639641271582 l 5.327609665205631 -5.732366219521213" fill="#ff3204" stroke="none" /><path d="M 85.70375840098266 115.38237550388516 l -6.163340365957749 6.631590212768347 a30.053438750923824,30.053438750923824 0 0,0 -0.3759029244380045,-0.3554396777336722 l 6.27657912478657 -6.524515898288745" fill="#ff4406" stroke="none" /><path d="M 85.18274418774928 114.88116024355367 l -6.941014661958425 6.97095013720824 a30.837267423068532,30.837267423068532 0 0,0 -0.3729244361789453,-0.3777704849640358 l 7.059979723192903 -6.850439158263539" fill="#ff5007" stroke="none" /><path d="M 84.9287848128048 114.62390073753433 l -10.367660796732432 10.059948085716197 a35.44613948026972,35.44613948026972 0 0,0 -0.4211228371064276,-0.4415456110791732 l 10.539290185217817 -9.879995358054524" fill="#ff920d" stroke="none" /><path d="M 83.72743513129214 113.27417163493433 l -5.775151341478143 4.711018253300681 a28.452923319068095,28.452923319068095 0 0,0 -0.306318872005612,-0.38217989150672665 l 5.8553881255386155 -4.6109105282156975" fill="#ff2c04" stroke="none" /><path d="M 83.06392112726016 112.41649034213515 l -47.243460651232816 34.63599675656074 a79.57983309659622,79.57983309659622 0 0,0 -0.800422327113217,-1.1117166054451724 l 47.83266277072164 -33.81764654566444" fill="#47feff" stroke="none" /><line stroke="#e1ed5e" stroke-width="0.3" x1="26.63291911575756" x2="22.317208475507996" y1="142.92168965132927" y2="145.44649492493687" /><path d="M 25.769776987707644 143.4266507060508 a86.0,86.0 0 0,1 -11.730757126820373,-40.83630448921669" fill="none" id="id9" stroke="none" /><text fill="#e1ed5e" style="font-size:6.75px; font-family:Arial;" text-anchor="middle"><textPath startOffset="21.46611528233685" xlink:href="#id9">September</textPath></text><path d="M 79.97269907076064 106.31721596034903 l -9.68853404609848 3.05605643639384 a31.15909311429094,31.15909311429094 0 0,0 -0.1569427544990744,-0.5128980023499805 l 9.739703573103684 -2.8888314614918116" fill="#ff5407" stroke="none" /><path d="M 79.67330655649465 105.27499134158121 l -56.999860541975856 14.792065008798982 a79.88793840022956,79.88793840022956 0 0,0 -0.3339646245634901,-1.3340226649950746 l 57.246036480834405 -13.808714504406515" fill="#48fbff" stroke="none" /><line stroke="#e1ed5e" stroke-width="0.3" x1="15.007084014347285" x2="10.007500721073583" y1="101.09737516637583" y2="101.16192664675087" /><path d="M 14.007167355692545 101.11028546245083 a86.0,86.0 0 0,1 10.666146001902526,-42.60595125391555" fill="none" id="id10" stroke="none" /><text fill="#e1ed5e" style="font-size:6.75px; font-family:Arial;" text-anchor="middle"><textPath startOffset="22.20632615414155" xlink:href="#id10">October</textPath></text><path d="M 79.00486145842228 99.54816195383935 l -14.334572916866872 -0.30849548367961166 a35.33789211050299,35.33789211050299 0 0,0 0.018322369837743158,-0.6080302545999762 l 14.327138852573484 0.5551958857045822" fill="#ff910d" stroke="none" /><path d="M 79.01574976396665 99.18683210126434 l -18.538017515337295 -0.7183730931585147 a39.551931255260904,39.551931255260904 0 0,0 0.03221861100829602,-0.6800839565659517 l 18.522905296095498 1.0373681563474753" fill="#ffcb12" stroke="none" /><path d="M 79.08570108090925 98.10471618934814 l -19.571187095114123 -1.7735690878334687 a40.65138447085294,40.65138447085294 0 0,0 0.06915163325217526,-0.6963475097575107 l 19.53775833617972 2.11019212829541" fill="#ffd914" stroke="none" /><path d="M 79.54389044137918 95.25157060432595 l -28.717314727938394 -6.666083842980728 a50.48085546562576,50.48085546562576 0 0,0 0.2037676551552209,-0.8447484823375404 l 28.59831427252236 7.159417556977665" fill="#a9ff21" stroke="none" /><path d="M 81.26839172434947 90.50648371742162 l -26.262775244751207 -13.310447279417238 a50.443188861508574,50.443188861508574 0 0,0 0.39919915000502537,-0.7711256952722793 l 26.029766661586066 13.760545696949853" fill="#a9ff21" stroke="none" /><line stroke="#e1ed5e" stroke-width="0.3" x1="26.266209847984243" x2="21.928928074336255" y1="57.71137044288968" y2="55.22380399835378" /><path d="M 25.398753493254645 57.2138571539825 a86.0,86.0 0 0,1 29.58750427330803,-30.4925239686951" fill="none" id="id11" stroke="none" /><text fill="#e1ed5e" style="font-size:6.75px; font-family:Arial;" text-anchor="middle"><textPath startOffset="21.46611528233685" xlink:href="#id11">November</textPath></text><path d="M 82.34701348167596 88.62581576622439 l -22.722188354977767 -14.640375795664763 a48.0303245832782,48.0303245832782 0 0,0 0.45377990486540914,-0.6911379271598072 l 22.466811814754436 15.02933178680224" fill="#c7ff1e" stroke="none" /><path d="M 83.84228863543731 86.58626213691792 l -20.6415377917512 -17.136101195414966 a47.827579961446304,47.827579961446304 0 0,0 0.5313174660762533,-0.62891229367863 l 20.343509712187824 17.488872438722712" fill="#c9ff1d" stroke="none" /><path d="M 85.83668400450813 84.49514656593477 l -9.772670202907408 -10.698329346303169 a35.489973557490224,35.489973557490224 0 0,0 0.454591092260685,-0.4081363710898044 l 9.587068123050752 10.864964726162254" fill="#ff930d" stroke="none" /><line stroke="#e1ed5e" stroke-width="0.3" x1="56.76296977257108" x2="54.21961505331056" y1="26.818313649435495" y2="22.513508569990535" /><path d="M 56.25429882871898 25.957352633546506 a86.0,86.0 0 0,1 42.26535254187918,-11.944610805530505" fill="none" id="id12" stroke="none" /><text fill="#e1ed5e" style="font-size:6.75px; font-family:Arial;" text-anchor="middle"><textPath startOffset="22.20632615414155" xlink:href="#id12">December</textPath></text><path d="M 92.23578459929587 80.48803036053334 l -23.292646202112408 -58.53590891839998 a84.0,84.0 0 0,0 1.34806734000129,-0.5230291844377941 l 22.28159569711144 58.92818080672833" fill="#4dd2ff" stroke="none" /><path d="M 96.75951476605007 79.25152402106235 l -2.2297210823044242 -14.2766625909085 a35.44973186047129,35.44973186047129 0 0,0 0.6037106547043495,-0.08897125733626063 l 1.9836414471714257 14.31292833240573" fill="#ff920d" stroke="none" /><path d="M 99.27714615592234 79.0124445844662 l -0.9465793952361269 -27.483270201142187 a48.499566423863406,48.499566423863406 0 0,0 0.8345929290562373,-0.02155507306854059 l 0.4733598309850105 27.495492066353087" fill="#c1ff1e" stroke="none" /></svg>