<?xml version="1.0" encoding="utf-8" ?>
<svg baseProfile="full" height="200mm" version="1.1" viewBox="0,0,200,200" width="200mm" xmlns="http://www.w3.org/2000/svg" xmlns:ev="http://www.w3.org/2001/xml-events" xmlns:xlink="http://www.w3.org/1999/xlink"><defs /><rect fill="#1a1a1a" height="200" width="200" x="0" y="0" /><text alignment-baseline="middle" fill="#e1ed5e" style="dominant-baseline: central; font-size:9.0px; font-family:Arial;" text-anchor="middle" x="100.0" y="100.0">2018</text><line stroke="#e1ed5e" stroke-width="0.3" x1="100.0" x2="100.0" y1="15.0" y2="10.0" /><path d="M 100.0 14.0 a86.0,86.0 0 0,1 42.46469731375804,11.215312516191453" fill="none" id="id13" stroke="none" /><text fill="#e1ed5e" style="font-size:6.75px; font-family:Arial;" text-anchor="middle"><textPath startOffset="22.20632615414155" xlink:href="#id13">January</textPath></text><path d="M 102.16513564639614 79.11191278185805 l 6.467168310431049 -62.391830252085754 a83.72610898310629,83.72610898310629 0 0,0 1.432247911062156,0.16092974089141185 l -7.540182925002931 62.27126455772375" fill="#4dd5ff" stroke="none" /><line stroke="#e1ed5e" stroke-width="0.3" x1="143.23703022742887" x2="145.7803849466894" y1="26.81831364943548" y2="22.513508569990506" /><path d="M 143.74570117128098 25.957352633546492 a86.0,86.0 0 0,1 28.547481713284135,27.462654790039103" fill="none" id="id14" stroke="none" /><text fill="#e1ed5e" style="font-size:6.75px; font-family:Arial;" text-anchor="middle"><textPath startOffset="19.985693538727396" xlink:href="#id14">February</textPath></text><path d="M 111.2981086023043 82.29822771554956 l 16.80697103044495 -26.33300709391419 a52.2394228151922,52.2394228151922 0 0,0 0.7538222698571535,0.49030697324569905 l -17.257760326086384 26.039801196508964" fill="#aaff21" stroke="none" /><line stroke="#e1ed5e" stroke-width="0.3" x1="172.23445277983987" x2="176.4835382374775" y1="55.19839476539836" y2="52.563006222186495" /><path d="M 173.08426987136738 54.67131705675599 a86.0,86.0 0 0,1 12.851231095245387,41.99856678651699" fill="none" id="id15" stroke="none" /><text fill="#e1ed5e" style="font-size:6.75px; font-family:Arial;" text-anchor="middle"><textPath startOffset="22.20632615414155" xlink:href="#id15">March</textPath></text><path d="M 119.34039704204932 91.81776055985345 l 14.145840250521585 -5.984605784471828 a36.35969735342498,36.35969735342498 0 0,0 0.238897605054951,0.5785094998286199 l -14.246759542462733 5.740221714189905" fill="#ff790b" stroke="none" /><line stroke="#e1ed5e" stroke-width="0.3" x1="184.98032266829074" x2="189.97916517819016" y1="98.17113171792111" y2="98.06355123074" /><path d="M 185.9800911702706 98.14961562048488 a86.0,86.0 0 0,1 -9.607161424134198,41.387399972396054" fill="none" id="id16" stroke="none" /><text fill="#e1ed5e" style="font-size:6.75px; font-family:Arial;" text-anchor="middle"><textPath startOffset="21.466115282336823" xlink:href="#id16">April</textPath></text><path d="M 120.95626037817324 101.35467743843564 l 22.488632107001823 1.4537346829477775 a43.53557007427322,43.53557007427322 0 0,0 -0.054779027708198785,0.7474163109382282 l -22.460276520629286 -1.840624130382776" fill="#ffe115" stroke="none" /><path d="M 120.64145759157962 103.86396538481128 l 27.88175401968231 5.2193083711212225 a49.36606047879978,49.36606047879978 0 0,0 -0.16354286363035805,0.8339015382660884 l -27.78778122307629 -5.6984736364552555" fill="#ceff1d" stroke="none" /><path d="M 120.49622156327973 104.57218783832717 l 30.706636926204858 6.849872864443021 a52.461378062265496,52.461378062265496 0 0,0 -0.20419825491966156,0.879680737829052 l -30.584178105354646 -7.377422259620638" fill="#a7ff21" stroke="none" /><path d="M 118.64920377521936 109.65438752849418 l 11.267894033483227 5.833204298716765 a33.688250799080805,33.688250799080805 0 0,0 -0.2710259749902592,0.5126790058761316 l -11.165815550268075 -6.026298319679031" fill="#ff4f07" stroke="none" /><line stroke="#e1ed5e" stroke-width="0.3" x1="174.80103733775053" x2="179.2010983576182" y1="140.37084112569926" y2="142.7455964860345" /><path d="M 175.68104954172406 140.8457921977663 a86.0,86.0 0 0,1 -30.038265399797805,32.042727171017184" fill="none" id="id17" stroke="none" /><text fill="#e1ed5e" style="font-size:6.75px; font-family:Arial;" text-anchor="middle"><textPath startOffset="22.206326154141568" xlink:href="#id17">May</textPath></text><path d="M 116.0416608686014 113.55231037782055 l 45.38875123193443 38.345309092080946 a80.41802308863578,80.41802308863578 0 0,0 -0.9024337860165276,1.0497343699405741 l -44.72197493634712 -39.12092056118305" fill="#48f7ff" stroke="none" /><path d="M 112.34349029814194 116.9893568818739 l 8.544129849174862 11.75998585056237 a35.536141925730774,35.536141925730774 0 0,0 -0.4979674020202895,0.3552865194869234 l -8.340435119305686 -11.905316631893513" fill="#ff6c09" stroke="none" /><line stroke="#e1ed5e" stroke-width="0.3" x1="143.8653032363475" x2="146.44561519142675" y1="172.8068346515853" y2="177.08958963109032" /><path d="M 144.38136562736335 173.6633856474863 a86.0,86.0 0 0,1 -40.68145358897372,12.25698825130547" fill="none" id="id18" stroke="none" /><text fill="#e1ed5e" style="font-size:6.75px; font-family:Arial;" text-anchor="middle"><textPath startOffset="21.466115282336833" xlink:href="#id18">June</textPath></text><path d="M 110.5260780823613 118.17145234162733 l 7.805790750495967 13.475346990731579 a36.572904217298294,36.572904217298294 0 0,0 -0.5474636922847903,0.3108641724040013 l -7.572678291289977 -13.607714328930209" fill="#ff7c0b" stroke="none" /><path d="M 107.93186726928326 119.44442032107085 l 18.76547562189704 46.00225686201453 a70.68249904860639,70.68249904860639 0 0,0 -1.130512463005606,0.449854240148156 l -17.97084208284957 -46.31845794656875" fill="#3aff97" stroke="none" /><line stroke="#e1ed5e" stroke-width="0.3" x1="102.19456741930631" x2="102.32365962044197" y1="184.97166512339345" y2="189.96999836594603" /><path d="M 102.22038585953345 185.97133177190398 a86.0,86.0 0 0,1 -42.740103519485714,-10.115201625700543" fill="none" id="id19" stroke="none" /><text fill="#e1ed5e" style="font-size:6.75px; font-family:Arial;" text-anchor="middle"><textPath startOffset="22.20632615414155" xlink:href="#id19">July</textPath></text><path d="M 98.01472825383883 120.90594882070398 l -5.879050826288511 61.90947709116629 a83.18799395638781,83.18799395638781 0 0,0 -1.4243662371660935,-0.14764138436442537 l 6.943849660060198 -61.7991063383461" fill="#4cdaff" stroke="none" /><line stroke="#e1ed5e" stroke-width="0.3" x1="58.666819895761336" x2="56.23545636021788" y1="174.27360380694188" y2="178.64263932499728" /><path d="M 58.180547188652646 175.14741091055294 a86.0,86.0 0 0,1 -31.652253787137756,-30.449443065178592" fill="none" id="id20" stroke="none" /><text fill="#e1ed5e" style="font-size:6.75px; font-family:Arial;" text-anchor="middle"><textPath startOffset="22.20632615414155" xlink:href="#id20">August</textPath></text><path d="M 88.8546689885994 117.79835938074946 l -6.765562593062908 10.804157751897632 a33.74765319298191,33.74765319298191 0 0,0 -0.48969162219575413,-0.3125443622425359 l 6.950536017305586 -10.686098960831293" fill="#ff5007" stroke="none" /><path d="M 88.54995079064634 117.60387380957326 l -8.512391694929114 13.087373379389195 a36.61217967932227,36.61217967932227 0 0,0 -0.5253417176980205,-0.34816784448194643 l 8.736408111367096 -12.93890751381593" fill="#ff7c0b" stroke="none" /><path d="M 86.79598089348748 116.32954008644616 l -14.371049444044514 17.772817964575562 a43.85607404006891,43.85607404006891 0 0,0 -0.582930490920907,-0.4797121083221291 l 14.67485006351011 -17.522810737396252" fill="#ffe515" stroke="none" /><path d="M 86.51685102203217 116.09983520530335 l -9.934789266956964 11.862842297358549 a36.473430943098634,36.473430943098634 0 0,0 -0.47786190667281336,-0.4072442838592439 l 10.137516650206834 -11.690073623276353" fill="#ff7a0b" stroke="none" /><path d="M 84.9287848128048 114.62390073753433 l -21.80666119920256 21.159438362018875 a51.38506712931341,51.38506712931341 0 0,0 -0.6104875050341037,-0.6400937083313756 l 22.16765525561562 -20.780937537105" fill="#b4ff20" stroke="none" /><path d="M 83.06392112726016 112.41649034213515 l -50.02066091015704 36.672069005173825 a83.02344043189754,83.02344043189754 0 0,0 -0.8350584917007993,-1.159823208692761 l 50.64449919423345 -35.80561219102992" fill="#4cdcff" stroke="none" /><line stroke="#e1ed5e" stroke-width="0.3" x1="26.63291911575756" x2="22.317208475507996" y1="142.92168965132927" y2="145.44649492493687" /><path d="M 25.769776987707644 143.4266507060508 a86.0,86.0 0 0,1 -11.730757126820373,-40.83630448921669" fill="none" id="id21" stroke="none" /><text fill="#e1ed5e" style="font-size:6.75px; font-family:Arial;" text-anchor="middle"><textPath startOffset="21.46611528233685" xlink:href="#id21">September</textPath></text><path d="M 81.87401531095188 110.60418214915194 l -19.73902670270872 11.547854541053864 a43.86880232263129,43.86880232263129 0 0,0 -0.3757007870910093,-0.6550659902067706 l 19.934879485952106 -11.206368704988787" fill="#ffe615" stroke="none" /><path d="M 80.73074385275274 108.34839909993369 l -14.253855493874454 6.175478361298645 a36.53412145668762,36.53412145668762 0 0,0 -0.2450378647702643,-0.5791971293018043 l 14.358044339837024 -5.929206706330682" fill="#ff7b0b" stroke="none" /><path d="M 79.86692584326677 105.97154293290107 l -7.400380245976499 2.194979664536844 a28.719039027804527,28.719039027804527 0 0,0 -0.1364938836442969,-0.4751531152810685 l 7.4370667665069 -2.067269073751179" fill="#ff0000" stroke="none" /><path d="M 79.76711848015287 105.62410040840567 l -60.08082538783283 16.70056705811292 a83.35875655708494,83.35875655708494 0 0,0 -0.37238310982751543,-1.3857760815853024 l 60.35939657400212 -15.66390004335208" fill="#4cd9ff" stroke="none" /><line stroke="#e1ed5e" stroke-width="0.3" x1="15.007084014347285" x2="10.007500721073583" y1="101.09737516637583" y2="101.16192664675087" /><path d="M 14.007167355692545 101.11028546245083 a86.0,86.0 0 0,1 10.666146001902534,-42.60595125391555" fill="none" id="id22" stroke="none" /><text fill="#e1ed5e" style="font-size:6.75px; font-family:Arial;" text-anchor="middle"><textPath startOffset="22.20632615414155" xlink:href="#id22">October</textPath></text><path d="M 79.3925641242962 95.95851677861259 l -14.848150385408982 -2.911985315068605 a36.1310022253285,36.1310022253285 0 0,0 0.12494565813810732,-0.609279402628719 l 14.79582543135588 3.1671403738607267" fill="#ff750a" stroke="none" /><path d="M 79.46518482838121 95.60439243477599 l -22.257546632181697 -4.764369172163894 a43.76175730677244,43.76175730677244 0 0,0 0.16401409212845644,-0.7352430150802809 l 22.172238153051204 5.146790356794134" fill="#ffe415" stroke="none" /><path d="M 80.02781315780177 93.51064311812611 l -59.19590762979502 -19.23391632530417 a83.24226070222728,83.24226070222728 0 0,0 0.45451347069871534,-1.3589374258226523 l 58.85605686532454 20.250026854049143" fill="#4cdaff" stroke="none" /><line stroke="#e1ed5e" stroke-width="0.3" x1="26.266209847984243" x2="21.928928074336255" y1="57.711370442889674" y2="55.22380399835377" /><path d="M 25.398753493254645 57.213857153982495 a86.0,86.0 0 0,1 29.58750427330803,-30.492523968695096" fill="none" id="id23" stroke="none" /><text fill="#e1ed5e" style="font-size:6.75px; font-family:Arial;" text-anchor="middle"><textPath startOffset="21.46611528233685" xlink:href="#id23">November</textPath></text><line stroke="#e1ed5e" stroke-width="0.3" x1="56.762969772571076" x2="54.21961505331055" y1="26.818313649435495" y2="22.513508569990535" /><path d="M 56.25429882871897 25.957352633546506 a86.0,86.0 0 0,1 42.265352541879196,-11.944610805530505" fill="none" id="id24" stroke="none" /><text fill="#e1ed5e" style="font-size:6.75px; font-family:Arial;" text-anchor="middle"><textPath startOffset="22.20632615414155" xlink:href="#id24">December</textPath></text><path d="M 89.63071344664047 81.73862282372117 l -7.627648635276125 -13.43307159852546 a36.447602929721526,36.447602929721526 0 0,0 0.5482342750745794,-0.30509178051835 l 7.3952902711295 13.562378776603994" fill="#ff7a0b" stroke="none" /><path d="M 91.90106846888425 80.62456947434976 l -24.29679459334727 -58.12629157695071 a84.0,84.0 0 0,0 1.338864521646478,-0.5461564552656921 l 23.29264620211241 58.53590891839998" fill="#4dd2ff" stroke="none" /><path d="M 96.40284397218896 79.31037775812273 l -3.9325163303803947 -22.618501034300404 a43.957815090451376,43.957815090451376 0 0,0 0.746593752605303,-0.12319436624199627 l 3.542593371636206 22.682841663482026" fill="#ffe715" stroke="none" /></svg>