<?xml version="1.0" encoding="utf-8" ?>
<svg baseProfile="full" height="200mm" version="1.1" viewBox="0,0,200,200" width="200mm" xmlns="http://www.w3.org/2000/svg" xmlns:ev="http://www.w3.org/2001/xml-events" xmlns:xlink="http://www.w3.org/1999/xlink"><defs /><rect fill="#1a1a1a" height="200" width="200" x="0" y="0" /><text alignment-baseline="middle" fill="#e1ed5e" style="dominant-baseline: central; font-size:9.0px; font-family:Arial;" text-anchor="middle" x="100.0" y="100.0">2022</text><line stroke="#e1ed5e" stroke-width="0.3" x1="100.0" x2="100.0" y1="15.0" y2="10.0" /><path d="M 100.0 14.0 a86.0,86.0 0 0,1 42.46469731375804,11.215312516191453" fill="none" id="id61" stroke="none" /><text fill="#e1ed5e" style="font-size:6.75px; font-family:Arial;" text-anchor="middle"><textPath startOffset="22.20632615414155" xlink:href="#id61">January</textPath></text><path d="M 100.0 79.0 l 0.0 -12.508426501561758 a33.50842650156176,33.50842650156176 0 0,0 0.5767924795929922,0.004964634971741588 l -0.2153120003204638 12.506573243198575" fill="#ff7b0b" stroke="none" /><line stroke="#e1ed5e" stroke-width="0.3" x1="143.23703022742887" x2="145.7803849466894" y1="26.81831364943548" y2="22.513508569990506" /><path d="M 143.74570117128098 25.957352633546492 a86.0,86.0 0 0,1 28.547481713284135,27.462654790039103" fill="none" id="id62" stroke="none" /><text fill="#e1ed5e" style="font-size:6.75px; font-family:Arial;" text-anchor="middle"><textPath startOffset="19.985693538727396" xlink:href="#id62">February</textPath></text><path d="M 112.19680574252982 82.90503203632743 l 4.7917305154914365 -6.716060039166283 a29.25022083236431,29.25022083236431 0 0,0 0.40735067048147255,0.295957585916286 l -4.906626502326698 6.632583218433322" fill="#ff3d05" stroke="none" /><path d="M 115.68641384162765 86.03803664274999 l 13.079123378759775 -11.6412994839264 a38.50952089668034,38.50952089668034 0 0,0 0.4364561572918476,0.49894483686020147 l -13.27757139962947 11.414439090863251" fill="#ffc011" stroke="none" /><path d="M 117.2510076193507 88.02491185347247 l 14.404537243268829 -9.999161034778753 a38.534934119983355,38.534934119983355 0 0,0 0.3735604668521795,0.5481538901650518 l -14.57452217578974 9.749729121343295" fill="#ffc111" stroke="none" /><line stroke="#e1ed5e" stroke-width="0.3" x1="172.23445277983987" x2="176.4835382374775" y1="55.19839476539836" y2="52.563006222186495" /><path d="M 173.08426987136738 54.67131705675599 a86.0,86.0 0 0,1 12.851231095245387,41.99856678651699" fill="none" id="id63" stroke="none" /><text fill="#e1ed5e" style="font-size:6.75px; font-family:Arial;" text-anchor="middle"><textPath startOffset="22.20632615414155" xlink:href="#id63">March</textPath></text><path d="M 118.56541770881063 90.18545643968196 l 15.4158118133735 -8.149515348001964 a38.43736947686392,38.43736947686392 0 0,0 0.30418705815209796,0.5875925755538542 l -15.553808304685713 7.882950050187766" fill="#ffbf11" stroke="none" /><path d="M 119.61058180528143 92.48833698450437 l 16.26796955411636 -6.231304427895896 a38.420562226483156,38.420562226483156 0 0,0 0.23124679869596435,0.6196264518302196 l -16.372820941313947 5.9503548390363425" fill="#ffbf11" stroke="none" /><path d="M 120.37134235888165 94.90015583598534 l 16.913263917769854 -4.2341348334304545 a38.43520559499672,38.43520559499672 0 0,0 0.15514498808035987,0.6431761366804223 l -16.983641706111033 3.942373465090626" fill="#ffbf11" stroke="none" /><line stroke="#e1ed5e" stroke-width="0.3" x1="184.98032266829074" x2="189.97916517819016" y1="98.17113171792111" y2="98.06355123074" /><path d="M 185.9800911702706 98.14961562048488 a86.0,86.0 0 0,1 -9.607161424134198,41.387399972396054" fill="none" id="id64" stroke="none" /><text fill="#e1ed5e" style="font-size:6.75px; font-family:Arial;" text-anchor="middle"><textPath startOffset="21.466115282336823" xlink:href="#id64">April</textPath></text><path d="M 120.9904718944345 100.63252640178507 l 17.44150235215591 0.5255818344636713 a38.44941949077328,38.44941949077328 0 0,0 -0.025629041237152518,0.661371674246212 l -17.429871178067557 -0.8257307557238895" fill="#ffc011" stroke="none" /><path d="M 120.8583938346157 102.4346265915055 l 16.890896570038688 1.9715336794312206 a38.005567676172305,38.005567676172305 0 0,0 -0.08143777074497749,0.6491391601748513 l -16.854457290046863 -2.261990593893467" fill="#ffba11" stroke="none" /><path d="M 120.41448212921028 104.9243191809786 l 20.580978295316925 4.964480878891339 a42.1712715250923,42.1712715250923 0 0,0 -0.17629335722352274,0.7042043286220567 l -20.49247362379834 -5.318013046910792" fill="#fff116" stroke="none" /><path d="M 119.67450827220406 107.3425965602758 l 19.895045558238742 7.424901860893574 a42.23539510836321,42.23539510836321 0 0,0 -0.26006086624475167,0.678936858765435 l -19.764290412400484 -7.766262286492154" fill="#fff216" stroke="none" /><line stroke="#e1ed5e" stroke-width="0.3" x1="174.80103733775053" x2="179.2010983576182" y1="140.37084112569926" y2="142.7455964860345" /><path d="M 175.68104954172406 140.8457921977663 a86.0,86.0 0 0,1 -30.038265399797805,32.042727171017184" fill="none" id="id65" stroke="none" /><text fill="#e1ed5e" style="font-size:6.75px; font-family:Arial;" text-anchor="middle"><textPath startOffset="22.206326154141568" xlink:href="#id65">May</textPath></text><path d="M 114.0293411484842 115.62618273729858 l 8.275065209654421 9.21694609608185 a33.38663794425717,33.38663794425717 0 0,0 -0.43093826312047556,0.38025291287111995 l -8.115184593627358 -9.358022150725258" fill="#ff790b" stroke="none" /><line stroke="#e1ed5e" stroke-width="0.3" x1="143.8653032363475" x2="146.44561519142675" y1="172.8068346515853" y2="177.08958963109032" /><path d="M 144.38136562736335 173.6633856474863 a86.0,86.0 0 0,1 -40.68145358897372,12.25698825130547" fill="none" id="id66" stroke="none" /><text fill="#e1ed5e" style="font-size:6.75px; font-family:Arial;" text-anchor="middle"><textPath startOffset="21.466115282336833" xlink:href="#id66">June</textPath></text><path d="M 109.57404056367764 118.69057910512821 l 5.862267017635497 11.444401629567773 a33.85847981858316,33.85847981858316 0 0,0 -0.5210112116751079,0.26124583754923103 l -5.664401898277629 -11.543615308026308" fill="#ff800b" stroke="none" /><path d="M 105.18746579009965 120.34920634021253 l 3.202521536496387 12.562737604846452 a33.9645100300762,33.9645100300762 0 0,0 -0.5677680800649766,0.13954358035121348 l -2.985800171688199 -12.616002443511695" fill="#ff820b" stroke="none" /><path d="M 102.70371172650421 120.8252237178851 l 2.2098509656909635 17.021282369922474 a38.16413396612829,38.16413396612829 0 0,0 -0.6521933858779431,0.07897153634061814 l -1.9165301567616402 -17.05679943498844" fill="#ffbc11" stroke="none" /><line stroke="#e1ed5e" stroke-width="0.3" x1="102.19456741930631" x2="102.32365962044197" y1="184.97166512339345" y2="189.96999836594603" /><path d="M 102.22038585953345 185.97133177190398 a86.0,86.0 0 0,1 -42.740103519485714,-10.115201625700543" fill="none" id="id67" stroke="none" /><text fill="#e1ed5e" style="font-size:6.75px; font-family:Arial;" text-anchor="middle"><textPath startOffset="22.20632615414155" xlink:href="#id67">July</textPath></text><path d="M 100.18074693466247 120.99922214144158 l 0.14695076824802022 17.072775436321372 a38.07340785043651,38.07340785043651 0 0,0 -0.6553954058209396,0.0 l 0.14695076824800848 -17.072775436321372" fill="#ffbb11" stroke="none" /><path d="M 92.7421414339146 119.70592522655815 l -21.773575698256195 59.117775679674445 a84.0,84.0 0 0,0 -1.3525191169588682,-0.5114069995734671 l 22.787965035975347 -58.734220429994345" fill="#4dd2ff" stroke="none" /><line stroke="#e1ed5e" stroke-width="0.3" x1="58.666819895761336" x2="56.23545636021788" y1="174.27360380694188" y2="178.64263932499728" /><path d="M 58.180547188652646 175.14741091055294 a86.0,86.0 0 0,1 -31.652253787137756,-30.449443065178592" fill="none" id="id68" stroke="none" /><text fill="#e1ed5e" style="font-size:6.75px; font-family:Arial;" text-anchor="middle"><textPath startOffset="22.20632615414155" xlink:href="#id68">August</textPath></text><path d="M 88.24862548938628 117.40417183066458 l -9.591480626595335 14.20529800875503 a38.14021563831369,38.14021563831369 0 0,0 -0.5409428879461957,-0.372065450909989 l 9.83458039916442 -14.03809176847994" fill="#ffbb11" stroke="none" /><path d="M 86.24171649860922 115.8653595955263 l -11.13927123648391 12.845246558631763 a38.00246225792014,38.00246225792014 0 0,0 -0.4905170477803828,-0.4328242632269767 l 11.358730637170881 -12.651599153632498" fill="#ffba11" stroke="none" /><path d="M 84.19399662182784 113.82643327865904 l -12.881781335606593 11.268445658629023 a38.11485196955725,38.11485196955725 0 0,0 -0.4277166839631963,-0.49753113271066157 l 13.073840529140568 -11.04503742675683" fill="#ffbb11" stroke="none" /><path d="M 83.06392112726016 112.41649034213515 l -3.378886232946011 2.47719136134139 a25.189671731281162,25.189671731281162 0 0,0 -0.25336036633673803,-0.35189538931787334 l 3.4210263916583568 -2.418662366572378" fill="#ff0000" stroke="none" /><path d="M 82.6465618267979 111.8261652097733 l -17.571333310379195 11.974658198018236 a42.2636824953677,42.2636824953677 0 0,0 -0.4045175683559896,-0.6046988790277911 l 17.774853984145917 -11.670422404784624" fill="#fff216" stroke="none" /><line stroke="#e1ed5e" stroke-width="0.3" x1="26.63291911575756" x2="22.317208475507996" y1="142.92168965132927" y2="145.44649492493687" /><path d="M 25.769776987707644 143.4266507060508 a86.0,86.0 0 0,1 -11.730757126820373,-40.83630448921669" fill="none" id="id69" stroke="none" /><text fill="#e1ed5e" style="font-size:6.75px; font-family:Arial;" text-anchor="middle"><textPath startOffset="21.46611528233685" xlink:href="#id69">September</textPath></text><path d="M 80.32549172779594 107.34259656027581 l -20.04042312642337 7.479157287119509 a42.39056691187864,42.39056691187864 0 0,0 -0.24924793218341418,-0.685823261641446 l 20.166195319612008 -7.133086228471947" fill="#fff417" stroke="none" /><path d="M 79.58551787078972 104.9243191809786 l -41.77824022791503 10.077619819093215 a63.976502623637934,63.976502623637934 0 0,0 -0.2490191961046913,-1.072768179381147 l 41.94551998995028 -9.356982982363494" fill="#33ff50" stroke="none" /><path d="M 79.1416061653843 102.43462659150553 l -21.11974044805318 2.4651314050458186 a42.26312087717315,42.26312087717315 0 0,0 -0.07812176589689081,-0.7233105281849564 l 21.15904451545112 -2.10122455497608" fill="#fff216" stroke="none" /><line stroke="#e1ed5e" stroke-width="0.3" x1="15.007084014347285" x2="10.007500721073583" y1="101.09737516637583" y2="101.16192664675087" /><path d="M 14.007167355692545 101.11028546245083 a86.0,86.0 0 0,1 10.666146001902534,-42.60595125391555" fill="none" id="id70" stroke="none" /><text fill="#e1ed5e" style="font-size:6.75px; font-family:Arial;" text-anchor="middle"><textPath startOffset="22.20632615414155" xlink:href="#id70">October</textPath></text><path d="M 79.03285615573316 98.82574320788736 l -25.486228673865053 -1.4273463924274679 a46.52616637375297,46.52616637375297 0 0,0 0.05166489060315543,-0.7992329902089383 l 25.457883192257484 1.865838446889418" fill="#d6ff1c" stroke="none" /><path d="M 79.62865764111835 94.90015583598534 l -24.703310264518894 -6.184326514419553 a46.465652013291106,46.465652013291106 0 0,0 0.20091674499260337,-0.7742141775549138 l 24.593197187655985 6.6086371175233305" fill="#d7ff1c" stroke="none" /><path d="M 80.38941819471856 92.48833698450439 l -23.83780121627013 -9.130862691629511 a46.52671973285642,46.52671973285642 0 0,0 0.2929110691204962,-0.7454267215740698 l 23.677096597267944 9.539838418099345" fill="#d6ff1c" stroke="none" /><path d="M 81.43458229118936 90.18545643968196 l -30.504928401939015 -16.126324400615577 a55.5052024408105,55.5052024408105 0 0,0 0.45379970049172724,-0.8408219247810796 l 30.222820602228815 16.649027308729128" fill="#6dff28" stroke="none" /><line stroke="#e1ed5e" stroke-width="0.3" x1="26.266209847984243" x2="21.928928074336255" y1="57.711370442889674" y2="55.22380399835377" /><path d="M 25.398753493254645 57.213857153982495 a86.0,86.0 0 0,1 29.58750427330803,-30.492523968695096" fill="none" id="id71" stroke="none" /><text fill="#e1ed5e" style="font-size:6.75px; font-family:Arial;" text-anchor="middle"><textPath startOffset="21.46611528233685" xlink:href="#id71">November</textPath></text><path d="M 82.7489923806493 88.02491185347247 l -28.922032119178503 -20.076733582527886 a56.20737384762737,56.20737384762737 0 0,0 0.5585604569507316,-0.7900441545601814 l 28.572159042423895 20.571604237419855" fill="#66ff29" stroke="none" /><line stroke="#e1ed5e" stroke-width="0.3" x1="56.762969772571076" x2="54.21961505331055" y1="26.818313649435495" y2="22.513508569990535" /><path d="M 56.25429882871897 25.957352633546506 a86.0,86.0 0 0,1 42.265352541879196,-11.944610805530505" fill="none" id="id72" stroke="none" /><text fill="#e1ed5e" style="font-size:6.75px; font-family:Arial;" text-anchor="middle"><textPath startOffset="22.20632615414155" xlink:href="#id72">December</textPath></text></svg>