<?xml version="1.0" encoding="utf-8" ?>
<svg baseProfile="full" height="200mm" version="1.1" viewBox="0,0,200,200" width="200mm" xmlns="http://www.w3.org/2000/svg" xmlns:ev="http://www.w3.org/2001/xml-events" xmlns:xlink="http://www.w3.org/1999/xlink"><defs /><rect fill="#1a1a1a" height="200" width="200" x="0" y="0" /><text alignment-baseline="middle" fill="#e1ed5e" style="dominant-baseline: central; font-size:9.0px; font-family:Arial;" text-anchor="middle" x="100.0" y="100.0">2020</text><line stroke="#e1ed5e" stroke-width="0.3" x1="100.0" x2="100.0" y1="15.0" y2="10.0" /><path d="M 100.0 14.0 a86.0,86.0 0 0,1 42.35913384403234,11.155469271406648" fill="none" id="id37" stroke="none" /><text fill="#e1ed5e" style="font-size:6.75px; font-family:Arial;" text-anchor="middle"><textPath startOffset="22.145653131862478" xlink:href="#id37">January</textPath></text><path d="M 100.0 79.0 l 0.0 -30.994982313630516 a51.994982313630516,51.994982313630516 0 0,0 0.892563011985959,0.007661579970998733 l -0.5320700871371042 30.99041513185395" fill="#e8ff1a" stroke="none" /><path d="M 101.44090949804482 79.04949213459386 l 4.285154386248356 -62.30520431393782 a83.45239012812496,83.45239012812496 0 0,0 1.4283512605791113,0.11056342109354178 l -5.354074641602701 62.22246312584923" fill="#4cd8ff" stroke="none" /><path d="M 108.4095320186766 80.7573450057729 l 6.240614903478403 -14.279748180132936 a36.58385326103678,36.58385326103678 0 0,0 0.5732978942906428,0.25642885606137955 l -6.484826200624678 14.170515573161705" fill="#ff1101" stroke="none" /><path d="M 108.73861861582097 80.90454125486305 l 12.285122189148415 -26.84520909484859 a50.52269429690401,50.52269429690401 0 0,0 0.7855347568361383,0.3676699301744182 l -12.74414565985606 26.63036293310364" fill="#ffff18" stroke="none" /><line stroke="#e1ed5e" stroke-width="0.3" x1="143.13028292997686" x2="145.6673583964461" y1="26.7553504044142" y2="22.446841604673864" /><path d="M 143.63769802327073 25.89364864446614 a86.0,86.0 0 0,1 29.32050498858742,28.57503671076993" fill="none" id="id38" stroke="none" /><text fill="#e1ed5e" style="font-size:6.75px; font-family:Arial;" text-anchor="middle"><textPath startOffset="20.669276256404974" xlink:href="#id38">February</textPath></text><line stroke="#e1ed5e" stroke-width="0.3" x1="172.87174338648825" x2="177.1583165268699" y1="56.24261187166439" y2="53.66864786411523" /><path d="M 173.72905801456457 55.72781907015455 a86.0,86.0 0 0,1 12.242430191666344,42.057860355516425" fill="none" id="id39" stroke="none" /><text fill="#e1ed5e" style="font-size:6.75px; font-family:Arial;" text-anchor="middle"><textPath startOffset="22.145653131862474" xlink:href="#id39">March</textPath></text><line stroke="#e1ed5e" stroke-width="0.3" x1="184.99686870605535" x2="189.99668451229388" y1="99.2704041080226" y2="99.22748670261217" /><path d="M 185.99683186730306 99.26182062694052 a86.0,86.0 0 0,1 -10.086455211305974,41.156179273409016" fill="none" id="id40" stroke="none" /><text fill="#e1ed5e" style="font-size:6.75px; font-family:Arial;" text-anchor="middle"><textPath startOffset="21.40746469413373" xlink:href="#id40">April</textPath></text><path d="M 120.93736805541906 101.62068470465957 l 14.630276221093686 1.13247590784622 a35.67404116074885,35.67404116074885 0 0,0 -0.05250263695287756,0.6101602257140696 l -14.608679961443068 -1.3834571809359468" fill="#ff0000" stroke="none" /><path d="M 120.7213421655516 103.40968896794604 l 30.575329821373685 5.031158886829476 a51.98650276217544,51.98650276217544 0 0,0 -0.15245706002614473,0.8793318083437054 l -30.484457943855304 -5.5552837280937695" fill="#e9ff1a" stroke="none" /><path d="M 120.16314734710363 105.8691983318838 l 21.83613891551403 6.356181795007693 a43.74242752541631,43.74242752541631 0 0,0 -0.2160535978528906,0.7191721596278254 l -21.72380899765751 -6.730091558226242" fill="#ff900d" stroke="none" /><line stroke="#e1ed5e" stroke-width="0.3" x1="174.33088141563837" x2="178.70328620479359" y1="141.23008692659167" y2="143.65538615756765" /><path d="M 175.20536237346943 141.71514677278685 a86.0,86.0 0 0,1 -30.301960400862466,31.631185727798858" fill="none" id="id41" stroke="none" /><text fill="#e1ed5e" style="font-size:6.75px; font-family:Arial;" text-anchor="middle"><textPath startOffset="22.145653131862474" xlink:href="#id41">May</textPath></text><path d="M 116.57777611688842 112.89097897827486 l 24.412855478946188 18.98358408026483 a51.92513503880617,51.92513503880617 0 0,0 -0.5532093238881437,0.6989619088098757 l -24.08337972441648 -19.399865932989385" fill="#e9ff1a" stroke="none" /><path d="M 115.16444852881244 114.52719865689866 l 22.229032407680048 21.294910205501242 a51.783162320366806,51.783162320366806 0 0,0 -0.6204441484740231,0.6366303544805563 l -21.86020145805522 -21.673363252049533" fill="#ecff1a" stroke="none" /><path d="M 110.96478420261333 117.91015095944535 l 16.14637781050755 26.37389470606319 a51.92390399619942,51.92390399619942 0 0,0 -0.7641894227086504,0.4588737913910205 l -15.69125563124146 -26.647182497990133" fill="#eaff1a" stroke="none" /><line stroke="#e1ed5e" stroke-width="0.3" x1="143.1302829299769" x2="145.66735839644613" y1="173.24464959558577" y2="177.55315839532614" /><path d="M 143.63769802327073 174.10635135553383 a86.0,86.0 0 0,1 -40.68552437913181,11.842963189579606" fill="none" id="id42" stroke="none" /><text fill="#e1ed5e" style="font-size:6.75px; font-family:Arial;" text-anchor="middle"><textPath startOffset="21.407464694133747" xlink:href="#id42">June</textPath></text><path d="M 106.72888874123015 119.89276391827305 l 4.905044800541709 14.500893383457958 a36.30801663879864,36.30801663879864 0 0,0 -0.5921271495188701,0.19464395518648123 l -4.655394913375105 -14.582958260046459" fill="#ff0c01" stroke="none" /><path d="M 106.38641147887787 120.00534299687104 l 4.6372549383484465 14.526135046640432 a36.24836819979346,36.24836819979346 0 0,0 -0.5944031015579626,0.1841476002854805 l -4.387211203918859 -14.603599234732556" fill="#ff0b01" stroke="none" /><path d="M 104.29559338865022 120.5559693870025 l 4.70881443137251 22.533381664130026 a44.02012646729929,44.02012646729929 0 0,0 -0.7410128292172364,0.1482233191180892 l -4.321305116624315 -22.610894379910977" fill="#ff950d" stroke="none" /><path d="M 101.80034050326958 120.92268563240118 l 2.6436342789996305 30.723037584333294 a51.83656661513175,51.83656661513175 0 0,0 -0.8872223450417741,0.06867662069250566 l -2.1158429391826203 -30.763891972020854" fill="#ebff1a" stroke="none" /><line stroke="#e1ed5e" stroke-width="0.3" x1="101.45913802915013" x2="101.54496967792366" y1="184.9874750549273" y2="189.98673829345242" /><path d="M 101.47630435890484 185.9873277026323 a86.0,86.0 0 0,1 -42.54439059252881,-10.42667462771756" fill="none" id="id43" stroke="none" /><text fill="#e1ed5e" style="font-size:6.75px; font-family:Arial;" text-anchor="middle"><textPath startOffset="22.145653131862474" xlink:href="#id43">July</textPath></text><path d="M 99.27912038922189 120.98762331915562 l -1.0605687541421551 30.877302094833706 a51.89551085089684,51.89551085089684 0 0,0 -0.89006791185489,-0.03822334586156746 l 1.5904624265978837 -30.854546180546308" fill="#eaff1a" stroke="none" /><path d="M 97.84075906011543 120.88869738790638 l -3.5008382271967466 33.86743414370274 a55.047892207463356,55.047892207463356 0 0,0 -0.939127784308726,-0.10523122706489818 l 4.081701913106272 -33.802347156130864" fill="#bbff1f" stroke="none" /><path d="M 96.76829788921471 120.74984581791261 l -3.278834269901905 21.052468089770908 a42.30627059905852,42.30627059905852 0 0,0 -0.7166329625718982,-0.11792168128037869 l 3.639744735526867 -20.99308040999486" fill="#ff780b" stroke="none" /><path d="M 94.30408787586889 120.21278271476187 l -8.337694961542283 29.58753803199293 a51.7398692916277,51.7398692916277 0 0,0 -0.8528208436181569,-0.2482437184331004 l 8.844375817542046 -29.440050619257313" fill="#ecff1a" stroke="none" /><path d="M 91.92203290615298 119.3841803445677 l -11.944296735623084 28.661963996944923 a52.05115786360926,52.05115786360926 0 0,0 -0.8218256306828393,-0.3507884929657607 l 12.434557441476354 -28.452700854319758" fill="#e8ff1a" stroke="none" /><line stroke="#e1ed5e" stroke-width="0.3" x1="58.13341422392154" x2="55.67067388415222" y1="173.97424548756322" y2="178.32567169271397" /><path d="M 57.64086615596768 174.84453072859336 a86.0,86.0 0 0,1 -31.369924170532247,-30.572349798747897" fill="none" id="id44" stroke="none" /><text fill="#e1ed5e" style="font-size:6.75px; font-family:Arial;" text-anchor="middle"><textPath startOffset="22.145653131862474" xlink:href="#id44">August</textPath></text><path d="M 89.65649057296885 118.27599006163327 l -10.813783737125663 19.106919706756205 a42.95477850933031,42.95477850933031 0 0,0 -0.6386097805714835,-0.36870152872007667 l 11.140185985557546 -18.918471280759956" fill="#ff830c" stroke="none" /><path d="M 87.54013794807813 116.9041958592261 l -13.487659183829585 18.298600062813495 a43.732261535490494,43.732261535490494 0 0,0 -0.600479376282445,-0.450610918618759 l 13.799791549022796 -18.06437011693072" fill="#ff900d" stroke="none" /><path d="M 85.60350026404147 115.28858382429668 l -30.534633760629003 32.426722908733076 a65.54050086713775,65.54050086713775 0 0,0 -0.8124759840897227,-0.778333613807648 l 31.08678223058404 -31.897777164619843" fill="#30ff32" stroke="none" /><path d="M 83.64595745247003 113.17365903436017 l -24.29490474650352 19.570255517712045 a52.196751396102414,52.196751396102414 0 0,0 -0.5561031189888116,-0.7026181243867479 l 24.62727429613389 -19.15031744941062" fill="#e5ff1a" stroke="none" /><line stroke="#e1ed5e" stroke-width="0.3" x1="26.387840678322732" x2="22.057713659400548" y1="142.50000000000003" y2="145.00000000000006" /><path d="M 25.521815274538298 143.00000000000003 a86.0,86.0 0 0,1 -11.493303480769221,-40.785679425670985" fill="none" id="id45" stroke="none" /><text fill="#e1ed5e" style="font-size:6.75px; font-family:Arial;" text-anchor="middle"><textPath startOffset="21.40746469413373" xlink:href="#id45">September</textPath></text><path d="M 80.9802524753101 108.90220220490708 l -21.36044252985184 9.997765655942287 a44.58439787618591,44.58439787618591 0 0,0 -0.3184929669767205,-0.695964611673227 l 21.52891996168362 -9.62961206205437" fill="#ff9f0e" stroke="none" /><path d="M 80.05021161711548 106.5578916946017 l -29.660366306270156 9.749951534604147 a52.22176939811797,52.22176939811797 0 0,0 -0.27263564431320564,-0.8540272727019508 l 29.823366666360617 -9.239355228210805" fill="#e5ff1a" stroke="none" /><line stroke="#e1ed5e" stroke-width="0.3" x1="15.003131293944662" x2="10.003315487706104" y1="100.72959589197737" y2="100.7725132973878" /><path d="M 14.003168132696942 100.73817937305945 a86.0,86.0 0 0,1 10.791469493833604,-42.45332614584628" fill="none" id="id46" stroke="none" /><text fill="#e1ed5e" style="font-size:6.75px; font-family:Arial;" text-anchor="middle"><textPath startOffset="22.145653131862435" xlink:href="#id46">October</textPath></text><path d="M 79.0935383218832 98.0201363427161 l -31.377003100205123 -2.9714348161365365 a52.517388032907014,52.517388032907014 0 0,0 0.09269971083295081,-0.8967856119101872 l 31.321370996890508 3.5096249503296364" fill="#e0ff1b" stroke="none" /><path d="M 79.73907114497095 94.47779374421319 l -29.795003613093556 -8.120760727244553 a51.88185543476,51.88185543476 0 0,0 0.24157552658949397,-0.8572663204319577 l 29.65120959442948 8.631034971579524" fill="#eaff1a" stroke="none" /><path d="M 80.5471966667186 92.08871423366112 l -28.58286445022702 -11.624402139479715 a51.85622895430341,51.85622895430341 0 0,0 0.34243422646481114,-0.8217174847125153 l 28.37910437922573 12.113352133633493" fill="#ebff1a" stroke="none" /><line stroke="#e1ed5e" stroke-width="0.3" x1="26.387840678322718" x2="22.05771365940052" y1="57.49999999999999" y2="54.99999999999999" /><path d="M 25.521815274538284 56.99999999999999 a86.0,86.0 0 0,1 29.574782752854787,-30.34633250058573" fill="none" id="id47" stroke="none" /><text fill="#e1ed5e" style="font-size:6.75px; font-family:Arial;" text-anchor="middle"><textPath startOffset="21.40746469413373" xlink:href="#id47">November</textPath></text><path d="M 81.81346652052679 89.5 l -33.690104543367454 -19.450990927139838 a59.90198185427967,59.90198185427967 0 0,0 0.5217927284036504,-0.8861181276157896 l 33.351238104834025 20.026460223049202" fill="#77ff27" stroke="none" /><path d="M 83.2033758604659 87.39550010848427 l -50.389872418602316 -37.8134996745472 a84.0,84.0 0 0,0 0.875392090582773,-1.1459163470364628 l 49.73332835066524 38.672936934824556" fill="#4dd2ff" stroke="none" /><path d="M 86.68645165197937 83.75963576809568 l -19.698249037491678 -24.028660935248347 a52.07084745358858,52.07084745358858 0 0,0 0.6961357290259294,-0.560757666440605 l 19.282862538110503 24.36326689548235" fill="#e7ff1a" stroke="none" /><path d="M 88.72937992617638 82.28071324371311 l -33.655540784646696 -52.91210015020474 a83.70873757150844,83.70873757150844 0 0,0 1.219101651576037,-0.7608095949517587 l 32.742275004280955 53.48204554199804" fill="#4dd5ff" stroke="none" /><line stroke="#e1ed5e" stroke-width="0.3" x1="56.869717070023135" x2="54.33264160355391" y1="26.7553504044142" y2="22.446841604673864" /><path d="M 56.362301976729285 25.89364864446614 a86.0,86.0 0 0,1 42.16139366436587,-11.88097634709845" fill="none" id="id48" stroke="none" /><text fill="#e1ed5e" style="font-size:6.75px; font-family:Arial;" text-anchor="middle"><textPath startOffset="22.145653131862474" xlink:href="#id48">December</textPath></text><path d="M 90.61103034731259 81.2157712731953 l -7.077710742408218 -14.160162655281844 a36.83048311888299,36.83048311888299 0 0,0 0.567960689179868,-0.27781803395095783 l 6.833589803966297 14.279574439330016" fill="#ff1602" stroke="none" /><path d="M 97.48249496171623 79.15144685158666 l -1.7690534778137874 -14.650300553014736 a35.7567224172927,35.7567224172927 0 0,0 0.6100166627877075,-0.0683536394383601 l 1.5173009134252806 14.678509952960066" fill="#ff0200" stroke="none" /><path d="M 98.1996594967304 79.07731436759882 l -5.360593230760498 -62.29821901284227 a83.5284259513842,83.5284259513842 0 0,0 1.4296526716452314,-0.11066415854075326 l 4.29037156434005 62.38106093837807" fill="#4cd7ff" stroke="none" /></svg>