<?xml version="1.0" encoding="utf-8" ?>
<svg baseProfile="full" height="200mm" version="1.1" viewBox="0,0,200,200" width="200mm" xmlns="http://www.w3.org/2000/svg" xmlns:ev="http://www.w3.org/2001/xml-events" xmlns:xlink="http://www.w3.org/1999/xlink"><defs /><rect fill="#1a1a1a" height="200" width="200" x="0" y="0" /><text alignment-baseline="middle" fill="#e1ed5e" style="dominant-baseline: central; font-size:9.0px; font-family:Arial;" text-anchor="middle" x="100.0" y="100.0">2023</text><line stroke="#e1ed5e" stroke-width="0.3" x1="100.0" x2="100.0" y1="15.0" y2="10.0" /><path d="M 100.0 14.0 a86.0,86.0 0 0,1 42.46469731375804,11.215312516191453" fill="none" id="id73" stroke="none" /><text fill="#e1ed5e" style="font-size:6.75px; font-family:Arial;" text-anchor="middle"><textPath startOffset="22.20632615414155" xlink:href="#id73">January</textPath></text><line stroke="#e1ed5e" stroke-width="0.3" x1="143.23703022742887" x2="145.7803849466894" y1="26.818313649435467" y2="22.513508569990506" /><path d="M 143.74570117128098 25.957352633546478 a86.0,86.0 0 0,1 28.547481713284135,27.462654790039114" fill="none" id="id74" stroke="none" /><text fill="#e1ed5e" style="font-size:6.75px; font-family:Arial;" text-anchor="middle"><textPath startOffset="19.985693538727396" xlink:href="#id74">February</textPath></text><path d="M 115.68641384162765 86.03803664274999 l 34.0193845868498 -30.279540361056046 a66.5430465839168,66.5430465839168 0 0,0 0.754180309966213,0.8621584675403019 l -34.53555676039387 29.689466337312798" fill="#33ff56" stroke="none" /><line stroke="#e1ed5e" stroke-width="0.3" x1="172.23445277983987" x2="176.4835382374775" y1="55.19839476539836" y2="52.563006222186495" /><path d="M 173.08426987136738 54.67131705675599 a86.0,86.0 0 0,1 12.851231095245387,41.99856678651699" fill="none" id="id75" stroke="none" /><text fill="#e1ed5e" style="font-size:6.75px; font-family:Arial;" text-anchor="middle"><textPath startOffset="22.20632615414155" xlink:href="#id75">March</textPath></text><path d="M 119.47837535516314 92.15188598940014 l 20.496392196235377 -8.25828745103147 a43.09754295585286,43.09754295585286 0 0,0 0.2713225315721064,0.6904862482877796 l -20.635508277689183 7.904252197847905" fill="#ffba11" stroke="none" /><path d="M 120.37134235888165 94.90015583598534 l 43.56518618514404 -10.906284750727416 a65.90960358776522,65.90960358776522 0 0,0 0.26604631105020504,1.1029337179149947 l -43.74646529645507 10.154765801153015" fill="#32ff4d" stroke="none" /><path d="M 120.83666639777658 97.38593545837742 l 44.9329585134105 -5.637065515078661 a66.28517713765905,66.28517713765905 0 0,0 0.13228516071113663,1.1333384717867998 l -45.02333402712522 4.862783304967008" fill="#33ff52" stroke="none" /><line stroke="#e1ed5e" stroke-width="0.3" x1="184.98032266829074" x2="189.97916517819016" y1="98.17113171792111" y2="98.06355123074" /><path d="M 185.9800911702706 98.14961562048488 a86.0,86.0 0 0,1 -9.607161424134198,41.387399972396054" fill="none" id="id76" stroke="none" /><text fill="#e1ed5e" style="font-size:6.75px; font-family:Arial;" text-anchor="middle"><textPath startOffset="21.466115282336823" xlink:href="#id76">April</textPath></text><path d="M 120.99980553446 99.90962569577887 l 45.20471252439513 -0.19454201302981103 a66.205131135835,66.205131135835 0 0,0 -0.004904547712229855,1.139644161899356 l -45.201363679393396 -0.5836116270732297" fill="#33ff51" stroke="none" /><path d="M 120.49622156327973 104.57218783832717 l 61.488664689839204 13.716563514981502 a84.0,84.0 0 0,0 -0.3269577362777887,1.4085253706057426 l -61.24344638763086 -14.772957542935808" fill="#4dd2ff" stroke="none" /><line stroke="#e1ed5e" stroke-width="0.3" x1="174.80103733775053" x2="179.2010983576182" y1="140.37084112569926" y2="142.7455964860345" /><path d="M 175.68104954172406 140.8457921977663 a86.0,86.0 0 0,1 -30.038265399797805,32.042727171017184" fill="none" id="id77" stroke="none" /><text fill="#e1ed5e" style="font-size:6.75px; font-family:Arial;" text-anchor="middle"><textPath startOffset="22.206326154141568" xlink:href="#id77">May</textPath></text><path d="M 117.35343817320211 111.8261652097733 l 9.36624599912753 6.382987133472541 a32.3344205349126,32.3344205349126 0 0,0 -0.31739943411927635,0.45723755761723034 l -9.254985657846115 -6.543265953276789" fill="#ff0c01" stroke="none" /><path d="M 115.80600337817218 113.82643327865902 l 34.149895298929735 29.872905726181475 a66.37186182484899,66.37186182484899 0 0,0 -0.7596137915221858,0.8534341473856901 l -33.63062265775922 -30.45631404330803" fill="#33ff53" stroke="none" /><path d="M 114.0293411484842 115.62618273729858 l 30.056717224786016 33.47781986815265 a65.99078431696012,65.99078431696012 0 0,0 -0.8517765108001935,0.7515937364244303 l -29.475998361079235 -33.99023674634937" fill="#33ff4e" stroke="none" /><path d="M 113.20401910651253 116.32954008644616 l 6.695656954697711 8.280584704160322 a31.648939153632426,31.648939153632426 0 0,0 -0.42657119480381517,0.33889395587463067 l -6.552128267176544 -8.394612574040078" fill="#ff0000" stroke="none" /><line stroke="#e1ed5e" stroke-width="0.3" x1="143.8653032363475" x2="146.44561519142675" y1="172.8068346515853" y2="177.08958963109032" /><path d="M 144.38136562736335 173.6633856474863 a86.0,86.0 0 0,1 -40.68145358897372,12.25698825130547" fill="none" id="id78" stroke="none" /><text fill="#e1ed5e" style="font-size:6.75px; font-family:Arial;" text-anchor="middle"><textPath startOffset="21.466115282336833" xlink:href="#id78">June</textPath></text><path d="M 110.21172684928248 118.3499491758327 l 10.740202949782294 19.299593611875856 a43.08678955815154,43.08678955815154 0 0,0 -0.651179243598731,0.35507484374750625 l -10.406400894314913 -19.481609107383136" fill="#ffba11" stroke="none" /><path d="M 107.59598834532513 119.57807347666477 l 16.31734163696534 42.056688213451324 a66.11120328234327,66.11120328234327 0 0,0 -1.064484122434825,0.4024968108192302 l -15.59098729377024 -42.33133327437719" fill="#33ff50" stroke="none" /><line stroke="#e1ed5e" stroke-width="0.3" x1="102.19456741930631" x2="102.32365962044197" y1="184.97166512339345" y2="189.96999836594603" /><path d="M 102.22038585953345 185.97133177190398 a86.0,86.0 0 0,1 -42.740103519485714,-10.115201625700543" fill="none" id="id79" stroke="none" /><text fill="#e1ed5e" style="font-size:6.75px; font-family:Arial;" text-anchor="middle"><textPath startOffset="22.20632615414155" xlink:href="#id79">July</textPath></text><path d="M 97.65516085044442 120.86867818915974 l -3.7652866267896257 33.51042433734191 a54.72129776047473,54.72129776047473 0 0,0 -0.9351415781558962,-0.11323262198305692 l 4.341555627996911 -33.44064618663351" fill="#9fff22" stroke="none" /><path d="M 95.16358092515715 120.4354850818985 l -10.429357358568982 44.06751636214443 a66.28484838486935,66.28484838486935 0 0,0 -1.1080513474667948,-0.272332062451992 l 11.186361990778988 -43.88146304137841" fill="#33ff52" stroke="none" /><path d="M 92.40401165467489 119.57807347666478 l -4.022927789136469 10.368785767753748 a32.12185534405924,32.12185534405924 0 0,0 -0.513764486119129,-0.20443749191739866 l 4.200813351297456 -10.298001431430283" fill="#ff0801" stroke="none" /><path d="M 91.7346041902142 119.30500536409082 l -4.19666579750347 9.801908776852704 a31.66252406729652,31.66252406729652 0 0,0 -0.49918129080159335,-0.21882640830153516 l 4.364767762962807 -9.728217815256718" fill="#ff0100" stroke="none" /><line stroke="#e1ed5e" stroke-width="0.3" x1="58.666819895761336" x2="56.23545636021788" y1="174.27360380694188" y2="178.64263932499728" /><path d="M 58.180547188652646 175.14741091055294 a86.0,86.0 0 0,1 -31.652253787137756,-30.449443065178592" fill="none" id="id80" stroke="none" /><text fill="#e1ed5e" style="font-size:6.75px; font-family:Arial;" text-anchor="middle"><textPath startOffset="22.20632615414155" xlink:href="#id80">August</textPath></text><path d="M 88.54995079064634 117.60387380957326 l -12.065092158111732 18.54947135762221 a43.128021520935306,43.128021520935306 0 0,0 -0.6188363846450116,-0.41013101162604704 l 12.382603241496705 -18.339042324904845" fill="#ffbb11" stroke="none" /><path d="M 86.51685102203217 116.09983520530335 l -14.177243697125121 16.928633478879032 a43.08105229172509,43.08105229172509 0 0,0 -0.5644326090877471,-0.4810217145685264 l 14.466541782789925 -16.68208737408755" fill="#ffba11" stroke="none" /><path d="M 84.4343377721795 114.09645910891817 l -16.625898222531347 15.056622134846638 a43.43038924801629,43.43038924801629 0 0,0 -0.4970528434328037,-0.5584441388177592 l 16.882609915612484 -14.768203826288012" fill="#ffc011" stroke="none" /><path d="M 83.28015986056508 112.70617746262583 l -8.997860250096315 6.8378888893787355 a32.30124831794048,32.30124831794048 0 0,0 -0.332608620020903,-0.4455836006418564 l 9.114230136812301 -6.681992409227571" fill="#ff0c01" stroke="none" /><path d="M 83.06392112726016 112.41649034213515 l -8.600779606593106 6.305562091588205 a31.66459202839293,31.66459202839293 0 0,0 -0.3184857953608971,-0.44234891420144123 l 8.70804519432961 -6.156579571935625" fill="#ff0100" stroke="none" /><path d="M 82.85270091963577 112.12312394758628 l -18.145742669094094 12.829022603935368 a43.222776558865604,43.222776558865604 0 0,0 -0.42428114046563525,-0.6112086272235004 l 18.363884716721863 -12.514772714524854" fill="#ffbc11" stroke="none" /><line stroke="#e1ed5e" stroke-width="0.3" x1="26.63291911575756" x2="22.317208475507996" y1="142.92168965132927" y2="145.44649492493687" /><path d="M 25.769776987707644 143.4266507060508 a86.0,86.0 0 0,1 -11.730757126820373,-40.83630448921669" fill="none" id="id81" stroke="none" /><text fill="#e1ed5e" style="font-size:6.75px; font-family:Arial;" text-anchor="middle"><textPath startOffset="21.46611528233685" xlink:href="#id81">September</textPath></text><path d="M 81.69416730710424 110.29060199501025 l -31.623926137752257 17.777352326043314 a57.27818848964606,57.27818848964606 0 0,0 -0.4757460617369944,-0.863617291837548 l 31.925248608940766 -17.230364515807945" fill="#7eff26" stroke="none" /><path d="M 80.58989483394504 108.01547362559985 l -34.495015671904014 14.244842362644272 a58.3205257216654,58.3205257216654 0 0,0 -0.37518812191103657,-0.9311861496292542 l 34.73510640807244 -13.648956845172213" fill="#71ff27" stroke="none" /><path d="M 79.67330655649465 105.27499134158121 l -21.92440291636476 5.689613801408218 a43.65063240724811,43.65063240724811 0 0,0 -0.1824776975819874,-0.7289076941866629 l 22.019091928241806 -5.311378267824162" fill="#ffc312" stroke="none" /><line stroke="#e1ed5e" stroke-width="0.3" x1="15.007084014347285" x2="10.007500721073583" y1="101.09737516637583" y2="101.16192664675087" /><path d="M 14.007167355692545 101.11028546245083 a86.0,86.0 0 0,1 10.666146001902526,-42.60595125391555" fill="none" id="id82" stroke="none" /><text fill="#e1ed5e" style="font-size:6.75px; font-family:Arial;" text-anchor="middle"><textPath startOffset="22.20632615414155" xlink:href="#id82">October</textPath></text><path d="M 79.00175016825051 100.2711162175752 l -45.13091040527375 0.5827019786336078 a66.13467198955533,66.13467198955533 0 0,0 -0.004899328022475256,-1.1384312898253872 l 45.13425403058574 0.19423878939545466" fill="#33ff50" stroke="none" /><path d="M 79.08570108090925 98.10471618934814 l -55.24411473492248 -5.006301033371865 a76.47049001840546,76.47049001840546 0 0,0 0.13008312875932784,-1.3099193542210972 l 55.14975448048093 5.956495918297393" fill="#42ffd6" stroke="none" /><path d="M 79.54389044137918 95.25157060432595 l -44.20498447750659 -10.261200798069016 a66.38031395302252,66.38031395302252 0 0,0 0.2679463491240802,-1.1108106023894249 l 44.021805328121694 11.020596632117838" fill="#33ff53" stroke="none" /><path d="M 80.14247586403 93.16781622104843 l -21.270714194314035 -7.318406236851259 a43.49449604200494,43.49449604200494 0 0,0 0.24967273807588705,-0.7058584518330312 l 21.141588375428338 7.683462315110901" fill="#ffc011" stroke="none" /><path d="M 81.26839172434947 90.50648371742162 l -40.3226067073516 -20.43622297130022 a66.20566138226998,66.20566138226998 0 0,0 0.5239407806251903,-1.012086821166865 l 39.964856493566295 21.127282514727423" fill="#33ff51" stroke="none" /><line stroke="#e1ed5e" stroke-width="0.3" x1="26.266209847984243" x2="21.928928074336255" y1="57.71137044288968" y2="55.22380399835378" /><path d="M 25.398753493254645 57.2138571539825 a86.0,86.0 0 0,1 29.58750427330803,-30.4925239686951" fill="none" id="id83" stroke="none" /><text fill="#e1ed5e" style="font-size:6.75px; font-family:Arial;" text-anchor="middle"><textPath startOffset="21.46611528233685" xlink:href="#id83">November</textPath></text><path d="M 83.39014120810768 87.1503855733568 l -8.408799833700582 -6.505162807682371 a31.631324367062504,31.631324367062504 0 0,0 0.3368674581000962,-0.4277874623611488 l 8.295578295006516 6.648942663996565" fill="#ff0000" stroke="none" /><path d="M 84.07557802195018 86.31012108654704 l -34.14506405418937 -29.35376825848175 a66.02809245612505,66.02809245612505 0 0,0 0.7483439636662939,-0.8554865148050206 l 33.634728226945235 29.937170329489714" fill="#33ff4e" stroke="none" /><path d="M 85.83668400450813 84.49514656593477 l -15.187290749729852 -16.62581822011506 a43.51825108229189,43.51825108229189 0 0,0 0.5574253038179164,-0.5004619415714665 l 14.898854458315965 16.884779170455808" fill="#ffc111" stroke="none" /><path d="M 87.80319425747018 82.90503203632743 l -26.39856056622003 -37.000060236508915 a66.45204569074615,66.45204569074615 0 0,0 0.9368753066663691,-0.6563410240763706 l 25.757754119970002 37.44898610334923" fill="#33ff54" stroke="none" /><line stroke="#e1ed5e" stroke-width="0.3" x1="56.76296977257108" x2="54.21961505331056" y1="26.818313649435495" y2="22.513508569990535" /><path d="M 56.25429882871898 25.957352633546506 a86.0,86.0 0 0,1 42.26535254187918,-11.944610805530505" fill="none" id="id84" stroke="none" /><text fill="#e1ed5e" style="font-size:6.75px; font-family:Arial;" text-anchor="middle"><textPath startOffset="22.20632615414155" xlink:href="#id84">December</textPath></text><path d="M 94.63758080256005 79.69619591428918 l -11.464909570755113 -43.409750191878686 a65.89822449927061,65.89822449927061 0 0,0 1.099217252073085,-0.2802149526464991 l 10.715983429997026 43.60066814069405" fill="#32ff4d" stroke="none" /><path d="M 97.11714578562143 79.19881850522333 l -6.246396844324805 -45.070761399986 a66.50154949791555,66.50154949791555 0 0,0 1.1352298107813539,-0.14738541075315012 l 5.469652305035594 45.171605133903284" fill="#33ff55" stroke="none" /></svg>