<?xml version="1.0" encoding="utf-8" ?>
<svg baseProfile="full" height="200mm" version="1.1" viewBox="0,0,200,200" width="200mm" xmlns="http://www.w3.org/2000/svg" xmlns:ev="http://www.w3.org/2001/xml-events" xmlns:xlink="http://www.w3.org/1999/xlink"><defs /><rect fill="#1a1a1a" height="200" width="200" x="0" y="0" /><text alignment-baseline="middle" fill="#e1ed5e" style="dominant-baseline: central; font-size:9.0px; font-family:Arial;" text-anchor="middle" x="100.0" y="100.0">2021</text><line stroke="#e1ed5e" stroke-width="0.3" x1="100.0" x2="100.0" y1="15.0" y2="10.0" /><path d="M 100.0 14.0 a86.0,86.0 0 0,1 42.46469731375804,11.215312516191453" fill="none" id="id49" stroke="none" /><text fill="#e1ed5e" style="font-size:6.75px; font-family:Arial;" text-anchor="middle"><textPath startOffset="22.20632615414155" xlink:href="#id49">January</textPath></text><line stroke="#e1ed5e" stroke-width="0.3" x1="143.23703022742887" x2="145.7803849466894" y1="26.81831364943548" y2="22.513508569990506" /><path d="M 143.74570117128098 25.957352633546492 a86.0,86.0 0 0,1 28.547481713284135,27.462654790039103" fill="none" id="id50" stroke="none" /><text fill="#e1ed5e" style="font-size:6.75px; font-family:Arial;" text-anchor="middle"><textPath startOffset="19.985693538727396" xlink:href="#id50">February</textPath></text><path d="M 117.45458315368197 88.32363383020206 l 19.108742008915172 -12.782927370753479 a43.99015557427217,43.99015557427217 0 0,0 0.4156092798601873,0.6330014465408039 l -19.32594792413328 12.452107860235001" fill="#ff930d" stroke="none" /><line stroke="#e1ed5e" stroke-width="0.3" x1="172.23445277983987" x2="176.4835382374775" y1="55.19839476539836" y2="52.563006222186495" /><path d="M 173.08426987136738 54.67131705675599 a86.0,86.0 0 0,1 12.851231095245387,41.99856678651699" fill="none" id="id51" stroke="none" /><text fill="#e1ed5e" style="font-size:6.75px; font-family:Arial;" text-anchor="middle"><textPath startOffset="22.20632615414155" xlink:href="#id51">March</textPath></text><path d="M 118.89224826269711 90.83032412892265 l 28.148387924223233 -13.66230159425323 a52.28881953006362,52.28881953006362 0 0,0 0.38604538199159605,0.8131100283212053 l -28.379391500056585 13.175749150291486" fill="#e5ff1a" stroke="none" /><path d="M 119.85752413597 93.16781622104841 l 21.71169996826963 -7.470131891617584 a43.96085333759008,43.96085333759008 0 0,0 0.2400319243709711,0.7176649020292021 l -21.83706918641237 7.0952938866660675" fill="#ff930d" stroke="none" /><path d="M 120.91429891909075 98.10471618934814 l 62.33871772954415 -5.6492241478748975 a83.59416475708191,83.59416475708191 0 0,0 0.1175314697205259,1.4341816268865444 l -62.42672368308417 4.5753286037805845" fill="#4cd7ff" stroke="none" /><line stroke="#e1ed5e" stroke-width="0.3" x1="184.98032266829074" x2="189.97916517819016" y1="98.17113171792111" y2="98.06355123074" /><path d="M 185.9800911702706 98.14961562048488 a86.0,86.0 0 0,1 -9.607161424134198,41.387399972396054" fill="none" id="id52" stroke="none" /><text fill="#e1ed5e" style="font-size:6.75px; font-family:Arial;" text-anchor="middle"><textPath startOffset="21.466115282336823" xlink:href="#id52">April</textPath></text><path d="M 120.81339534386255 102.79330883721812 l 62.239122524886696 8.352942328591896 a83.79713383756173,83.79713383756173 0 0,0 -0.20416951785179585,1.4279611323254822 l -62.086118956018296 -9.423048932897787" fill="#4dd4ff" stroke="none" /><path d="M 120.32669344350535 105.2749913415812 l 60.36012743023703 15.664089708253625 a83.3595116223874,83.3595116223874 0 0,0 -0.3723864828812448,1.3857886339730336 l -60.081552871014004 -16.70076927540221" fill="#4cd9ff" stroke="none" /><path d="M 118.97047184881838 109.00673069616215 l 13.355929603637396 6.3410790251036655 a35.78479417441878,35.78479417441878 0 0,0 -0.2689768201497499,0.5541719178109743 l -13.244799526872931 -6.570039898879916" fill="#ff0000" stroke="none" /><line stroke="#e1ed5e" stroke-width="0.3" x1="174.80103733775053" x2="179.2010983576182" y1="140.37084112569926" y2="142.7455964860345" /><path d="M 175.68104954172406 140.8457921977663 a86.0,86.0 0 0,1 -30.038265399797805,32.042727171017184" fill="none" id="id53" stroke="none" /><text fill="#e1ed5e" style="font-size:6.75px; font-family:Arial;" text-anchor="middle"><textPath startOffset="22.206326154141568" xlink:href="#id53">May</textPath></text><path d="M 117.94076556474637 110.91462005526583 l 53.75578758762698 32.70339803355085 a83.92214985286921,83.92214985286921 0 0,0 -0.7614350981931262,1.2276758245006996 l -53.18488784976589 -33.62387018941682" fill="#4dd3ff" stroke="none" /><path d="M 113.48314897796784 116.09983520530334 l 19.93461299741067 23.803340352038603 a52.04815304122813,52.04815304122813 0 0,0 -0.6918187746611549,0.5693197527637475 l -19.521924094204827 -24.142955223659527" fill="#e9ff1a" stroke="none" /><line stroke="#e1ed5e" stroke-width="0.3" x1="143.8653032363475" x2="146.44561519142675" y1="172.8068346515853" y2="177.08958963109032" /><path d="M 144.38136562736335 173.6633856474863 a86.0,86.0 0 0,1 -40.68145358897372,12.25698825130547" fill="none" id="id54" stroke="none" /><text fill="#e1ed5e" style="font-size:6.75px; font-family:Arial;" text-anchor="middle"><textPath startOffset="21.466115282336833" xlink:href="#id54">June</textPath></text><path d="M 104.48393922423573 120.51570834832081 l 4.764847623484802 21.800969923776258 a43.31560132491226,43.31560132491226 0 0,0 -0.7297823620035668,0.15293298949884537 l -4.388873800051858 -21.879758894001643" fill="#ff870c" stroke="none" /><path d="M 101.98527174616119 120.90594882070398 l 2.949858058622425 31.063546701426972 a52.20329463754996,52.20329463754996 0 0,0 -0.8953006283964821,0.07725030544662408 l -2.4147131124844012 -31.10972125915226" fill="#e6ff1a" stroke="none" /><line stroke="#e1ed5e" stroke-width="0.3" x1="102.19456741930631" x2="102.32365962044197" y1="184.97166512339345" y2="189.96999836594603" /><path d="M 102.22038585953345 185.97133177190398 a86.0,86.0 0 0,1 -42.740103519485714,-10.115201625700543" fill="none" id="id55" stroke="none" /><text fill="#e1ed5e" style="font-size:6.75px; font-family:Arial;" text-anchor="middle"><textPath startOffset="22.20632615414155" xlink:href="#id55">July</textPath></text><path d="M 99.45781275523022 120.99299961872073 l -0.7908791037160131 30.622123413866515 a51.63233474828137,51.63233474828137 0 0,0 -0.8882719876226763,-0.030593883285917493 l 1.3178714430133325 -30.603972732154503" fill="#efff19" stroke="none" /><path d="M 97.2962882734958 120.8252237178851 l -3.9989983220001535 30.802113215959782 a52.06062082683095,52.06062082683095 0 0,0 -0.8876866591976935,-0.12302528234553468 l 4.528613572384678 -30.728713368121642" fill="#e9ff1a" stroke="none" /><line stroke="#e1ed5e" stroke-width="0.3" x1="58.666819895761336" x2="56.23545636021788" y1="174.27360380694188" y2="178.64263932499728" /><path d="M 58.180547188652646 175.14741091055294 a86.0,86.0 0 0,1 -31.652253787137756,-30.449443065178592" fill="none" id="id56" stroke="none" /><text fill="#e1ed5e" style="font-size:6.75px; font-family:Arial;" text-anchor="middle"><textPath startOffset="22.20632615414155" xlink:href="#id56">August</textPath></text><line stroke="#e1ed5e" stroke-width="0.3" x1="26.63291911575756" x2="22.317208475507996" y1="142.92168965132927" y2="145.44649492493687" /><path d="M 25.769776987707644 143.4266507060508 a86.0,86.0 0 0,1 -11.730757126820373,-40.83630448921669" fill="none" id="id57" stroke="none" /><text fill="#e1ed5e" style="font-size:6.75px; font-family:Arial;" text-anchor="middle"><textPath startOffset="21.46611528233685" xlink:href="#id57">September</textPath></text><path d="M 80.32549172779594 107.34259656027581 l -29.0723604975107 10.84990848232298 a52.03099513344689,52.03099513344689 0 0,0 -0.30593169403504417,-0.8417926295501229 l 29.25481645255097 -10.34786805576674" fill="#e9ff1a" stroke="none" /><line stroke="#e1ed5e" stroke-width="0.3" x1="15.007084014347285" x2="10.007500721073583" y1="101.09737516637583" y2="101.16192664675087" /><path d="M 14.007167355692545 101.11028546245083 a86.0,86.0 0 0,1 10.666146001902534,-42.60595125391555" fill="none" id="id58" stroke="none" /><text fill="#e1ed5e" style="font-size:6.75px; font-family:Arial;" text-anchor="middle"><textPath startOffset="22.20632615414155" xlink:href="#id58">October</textPath></text><path d="M 79.00486145842228 99.54816195383935 l -30.90661500724848 -0.6651437193738623 a51.913771484141165,51.913771484141165 0 0,0 0.026916809803769023,-0.893237876046536 l 30.890586502989066 1.1970517428453926" fill="#ebff1a" stroke="none" /><path d="M 79.21141760316559 97.0276538004421 l -30.956033514523366 -4.42608576255261 a52.270852980527486,52.270852980527486 0 0,0 0.13501836757591906,-0.8896023452982373 l 30.875259253508144 4.958287220242939" fill="#e5ff1a" stroke="none" /><path d="M 79.62865764111835 94.90015583598534 l -30.103674756250214 -7.536275583436126 a52.03267122726614,52.03267122726614 0 0,0 0.22498844809628962,-0.8669722690791052 l 29.96948997628362 8.053344278064095" fill="#e9ff1a" stroke="none" /><line stroke="#e1ed5e" stroke-width="0.3" x1="26.266209847984243" x2="21.928928074336255" y1="57.711370442889674" y2="55.22380399835377" /><path d="M 25.398753493254645 57.213857153982495 a86.0,86.0 0 0,1 29.58750427330803,-30.492523968695096" fill="none" id="id59" stroke="none" /><text fill="#e1ed5e" style="font-size:6.75px; font-family:Arial;" text-anchor="middle"><textPath startOffset="21.46611528233685" xlink:href="#id59">November</textPath></text><path d="M 88.39885842347998 82.49532879139004 l -17.870644844488453 -26.964567256186093 a53.34884595269551,53.34884595269551 0 0,0 0.7698314028581531,-0.5007197586725487 l 17.40384641584601 27.268185939018178" fill="#d5ff1c" stroke="none" /><line stroke="#e1ed5e" stroke-width="0.3" x1="56.762969772571076" x2="54.21961505331055" y1="26.818313649435495" y2="22.513508569990535" /><path d="M 56.25429882871897 25.957352633546506 a86.0,86.0 0 0,1 42.265352541879196,-11.944610805530505" fill="none" id="id60" stroke="none" /><text fill="#e1ed5e" style="font-size:6.75px; font-family:Arial;" text-anchor="middle"><textPath startOffset="22.20632615414155" xlink:href="#id60">December</textPath></text><path d="M 90.58718382345135 81.22770947309562 l -28.23844852964592 -56.31687158071317 a84.0,84.0 0 0,0 1.298114931958296,-0.6369793594606814 l 27.264862330677197 56.79460610030868" fill="#4dd2ff" stroke="none" /></svg>